<svg xmlns="http://www.w3.org/2000/svg" viewBox="0 0 792 324"><style>.st0{fill:#1d4094}.st2{fill:#fff}</style><g id="Layer_1"><path class="st0" d="M43.8 295.7c0 5.5-5.3 7.1-11.4 7.1H16.5v15c5.5 1 8 3.3 8 4.7v.3H5.8v-48.4c-3.3-1.1-5.8-3.3-5.8-4.9v-.3h49.2v13.5h-.3c-1.5 0-3.9-2.5-4.9-5.8H16.5V295h27.3v.7zM72.4 322.9H53v-.4c0-1.5 2.1-3.9 4.8-4.7v-34.9c-2.7-.9-4.8-3.3-4.8-4.7v-.4h19.4v.4c0 1.5-2.1 3.9-4.8 4.7v34.9c2.8.9 4.8 3.3 4.8 4.7v.4zM116.1 299.9c0 4.8-4.6 6.7-10 6.7h-13v11.2c3.9.7 7.5 3.3 7.5 4.7v.4H83.4v-40.1c-2.7-.9-4.8-3.3-4.8-4.7v-.4h42.1v12.2h-.4c-1.5 0-3.9-2.1-4.7-4.8H93.2v14.1h22.9v.7zM167.1 277.7v12.2h-.4c-1.5 0-3.9-2.1-4.7-4.8h-11.1v32.7c3.6.9 6.5 3.3 6.5 4.7v.4h-22.9v-.4c0-1.5 2.9-3.9 6.5-4.7v-32.7h-11.8c-.9 2.7-3.3 4.8-4.7 4.8h-.4v-12.2h43zM185.2 296.3c3.2-.7 7.1-1.3 13.8-1.3 6.7 0 10.3.7 13.9 1.3v-13.4c-2.8-.9-4.8-3.3-4.8-4.7v-.4h19.4v.4c0 1.5-2.1 3.9-4.8 4.7v34.9c2.7.9 4.8 3.3 4.8 4.7v.4h-14.6v-18.4c-3.6-.6-7.2-1.3-13.9-1.3-6.6 0-10.6.6-13.8 1.3v13.2c2.7.9 4.8 3.3 4.8 4.7v.4h-14.6v-40.1c-2.8-.9-4.8-3.3-4.8-4.7v-.4H190v.4c0 1.5-2.1 3.9-4.8 4.7v13.6zM318.4 269.4v13.5h-.2c-1.6 0-4-2.5-5.1-5.8h-16.4v40.8c3.2 1 5.8 3.4 5.8 4.9v.2h-22.3v-.2c0-1.6 2.4-4 5.8-4.9V277h-16.3c-1 3.3-3.3 5.8-4.9 5.8h-.3v-13.5h53.9zM335.6 296.3c3.2-.7 7.1-1.3 13.7-1.3 6.7 0 10.3.7 13.9 1.3v-13.4c-2.7-.9-4.8-3.3-4.8-4.7v-.4h19.4v.4c0 1.5-2.1 3.9-4.8 4.7v34.9c2.8.9 4.8 3.3 4.8 4.7v.4h-14.6v-18.4c-3.6-.6-7.2-1.3-13.9-1.3-6.6 0-10.6.6-13.7 1.3v13.2c2.7.9 4.8 3.3 4.8 4.7v.4h-14.6v-40.1c-2.8-.9-4.8-3.3-4.8-4.7v-.4h19.4v.4c0 1.5-2.1 3.9-4.8 4.7v13.6zM403.9 322.9h-19.4v-.4c0-1.5 2.1-3.9 4.8-4.7v-34.9c-2.8-.9-4.8-3.3-4.8-4.7v-.4h19.4v.4c0 1.5-2.1 3.9-4.8 4.7v34.9c2.8.9 4.8 3.3 4.8 4.7v.4zM440.8 297.8c8.3 0 9.8-2.7 9.8-6.4s-1.5-6.4-9.8-6.4h-15.7v12.7h15.7zm-10.9 25.1h-14.6v-40.1c-2.7-.9-4.8-3.3-4.8-4.7v-.4h31.7c11 0 18.2 3.6 18.2 13.4 0 7.6-4.8 11.3-12.4 12.7l9.6 13.9c2.4.3 5.6 2.8 5.6 4.7v.4h-13.7l-12.2-18.4H425v13.2c2.7.9 4.8 3.3 4.8 4.7v.6zM496.3 315.5c10.7 0 16-3.3 16-15.2 0-11.9-5.2-15.2-16-15.2H483v30.4h13.3zm-23.1-32.6c-2.8-.9-4.8-3.3-4.8-4.7v-.4h31.4c12.6 0 22.3 7.2 22.3 22.6 0 15.4-9.7 22.6-22.3 22.6h-26.6v-40.1zM593.7 314.3c9.1 0 12.5-2.6 12.5-7.4 0-4.8-3.4-7.7-12.5-7.7h-20.9v15h20.9zm-.2-23.5c6.5 0 11.3-1.5 11.3-7.1 0-5.2-4.8-5.9-11.3-5.9H573v13h20.5zm1.1-21.4c12.4 0 20.9 3.2 20.9 13.5 0 6.4-4.4 10.5-11.9 12 8.4 1.6 13.4 5.9 13.4 13 0 8.4-7.3 15-20.1 15h-34.7v-48.4c-3.3-1.1-5.8-3.3-5.8-4.9v-.3h38.2zM680.2 282.9c-2.8-.9-4.8-3.3-4.8-4.7v-.4h13.9l29.8 30.7V283c-2.7-.9-4.8-3.3-4.8-4.7v-.4h18.6v.4c0 1.5-2.1 3.9-4.8 4.7v34.9c2.7.9 4.8 3.3 4.8 4.7v.4H720l-30.9-31.7v26.6c2.8.9 4.8 3.3 4.8 4.7v.4h-13.7v-40.1zM773.4 282.1c-1.3-.9-2.2-2.8-2.2-4v-.4h18.7v.4c0 2.2-2.9 4.3-5.1 4.6l-16.3 13.8 18.1 21.2c2.2.6 5.5 2.5 5.5 4.7v.4h-13.7l-17.1-20.6-7.1 5.5v10c2.7.9 4.8 3.3 4.8 4.7v.4h-14.6v-40.1c-2.8-.9-4.8-3.3-4.8-4.7v-.4H759v.4c0 1.5-2.1 3.9-4.8 4.7v15.6l19.2-16.2zM644.4 288.5l-7 15.8c2.1-.3 4.6-.3 7.6-.3 3.2 0 5.7.2 7.7.4l-7.5-15.9h-.8zm-8.6 34v.4h-18.9v-.4c0-2.2 3.1-4.4 5.3-4.7l16.5-35.4c-1.9-.9-3.8-2.8-3.8-4.2v-.4h21.6v.4c0 1.5-2.1 3.4-3.9 4.2l17.5 35.4c2.2.3 5.3 2.5 5.3 4.7v.4h-20.9v-.4c0-2.3 2.4-4 4.6-4.6l-2.7-5.7c-2.9-.4-6.3-.9-11.5-.9-5 0-8.4.3-11.3.8l-2.5 5.6c2.6.4 4.7 2.5 4.7 4.8"/><g><path d="M528 71.3c0-38.6-31.6-70.2-70.2-70.2H264V166c0 38.6 31.6 70.2 70.2 70.2H528V71.3z" fill="#00ae65"/><path class="st2" d="M458 13.6H276.5v152.5c0 31.6 25.9 57.5 57.5 57.5h181.4V71.1c.1-31.6-25.8-57.5-57.4-57.5"/><path class="st0" d="M457.4 22H284.9v143.6c0 27.3 22.4 49.7 49.7 49.7h172.5V71.7c0-27.4-22.4-49.7-49.7-49.7"/><path class="st2" d="M382.4 192.4l39.7-150.2-9.4-.3L373 192.5l9.4-.1zm80.7-51.5c10.9-2.1 15.5-7.6 17-9.2 3.6-3.8 6-11.8 4.1-18.3-1.9-6.5-5.1-10.8-10.4-14.9-7.2-5.5-15-5.3-15-5.3l-42.1-.1c17.8 6 21.5 21.4 21.5 21.4s6.6 20.8-20.8 26.3c0 0-.4-.1-.1 0 2.4.8 8.9 4.1 14.3 9.6 4.8 4.9 6.4 12.2 6.4 12.2 4.4 21.5-21.4 26.8-21.4 26.8l41.1-.1c14.3 0 20.7-7.9 21.9-9.2 3.6-3.8 6.7-11.1 5.3-17.5-1.5-7-5.1-11.2-8.3-14-5-4.3-13.5-7.7-13.5-7.7-.1 0 0 0 0 0m-87.4-9c3.9-4 5.3-12.6 3.2-19.6-2-7-5.5-11.8-11.2-16.1-7.7-5.9-15.6-6.4-15.6-6.4l-45.2-.1c19.1 6.4 23.5 22.9 23.5 22.9 4.8 23.1-21.7 27.5-21.7 27.5h49.5c9.9-.5 16.2-6.8 17.5-8.2m-4.2-85.8l-.6 33.6-64 .1V46l64.6.1z"/></g></g></svg>
