<svg viewBox="5 7 89 17" preserveAspectRatio="xMidYMid meet" xmlns="http://www.w3.org/2000/svg"><g fill="none"><path d="M64.2 20.48a5.651 5.651 0 0 1-1.49.59c-.527.127-1.09.19-1.69.19-.733 0-1.41-.13-2.03-.39a4.294 4.294 0 0 1-1.61-1.18c-.453-.527-.81-1.197-1.07-2.01-.26-.813-.39-1.773-.39-2.88 0-1.053.137-1.98.41-2.78.273-.8.643-1.473 1.11-2.02a4.614 4.614 0 0 1 1.64-1.24 4.847 4.847 0 0 1 2-.42c.493 0 .997.067 1.51.2a5.454 5.454 0 0 1 1.51.66l-.48 1.36c-.88-.507-1.707-.76-2.48-.76a3.05 3.05 0 0 0-1.47.35c-.433.233-.803.57-1.11 1.01-.307.44-.543.967-.71 1.58a7.84 7.84 0 0 0-.25 2.06c0 .853.09 1.593.27 2.22.18.627.43 1.147.75 1.56.32.413.703.72 1.15.92.447.2.93.3 1.45.3a5.111 5.111 0 0 0 2.54-.68l.44 1.36zm-14.2.78c-.733 0-1.357-.107-1.87-.32a3.163 3.163 0 0 1-1.25-.9c-.32-.387-.553-.86-.7-1.42a7.425 7.425 0 0 1-.22-1.88V8.62h1.64v7.94c0 .627.057 1.15.17 1.57.113.42.273.757.48 1.01.207.253.457.433.75.54.293.107.627.16 1 .16s.707-.053 1-.16a1.71 1.71 0 0 0 .75-.54c.207-.253.367-.59.48-1.01.113-.42.17-.943.17-1.57V8.62h1.64v8.12c0 .693-.073 1.32-.22 1.88-.147.56-.38 1.033-.7 1.42a3.16 3.16 0 0 1-1.25.9c-.513.213-1.137.32-1.87.32z" fill="red"/><path d="M13.08 21l-.74-3.24H7.58L6.86 21H5.18c.227-.88.48-1.833.76-2.86s.583-2.08.91-3.16c.327-1.08.67-2.163 1.03-3.25a50.81 50.81 0 0 1 1.14-3.11h2.04a55.37 55.37 0 0 1 1.11 3.11c.353 1.087.687 2.17 1 3.25A203.78 203.78 0 0 1 14.82 21h-1.74zm-3.1-10.94c-.307.84-.64 1.813-1 2.92s-.7 2.247-1.02 3.42h4a63.22 63.22 0 0 0-.99-3.47 52.614 52.614 0 0 0-.99-2.87zM24.2 20.48a5.651 5.651 0 0 1-1.49.59c-.527.127-1.09.19-1.69.19-.733 0-1.41-.13-2.03-.39a4.294 4.294 0 0 1-1.61-1.18c-.453-.527-.81-1.197-1.07-2.01-.26-.813-.39-1.773-.39-2.88 0-1.053.137-1.98.41-2.78.273-.8.643-1.473 1.11-2.02a4.614 4.614 0 0 1 1.64-1.24 4.847 4.847 0 0 1 2-.42c.493 0 .997.067 1.51.2a5.454 5.454 0 0 1 1.51.66l-.48 1.36c-.88-.507-1.707-.76-2.48-.76a3.05 3.05 0 0 0-1.47.35c-.433.233-.803.57-1.11 1.01-.307.44-.543.967-.71 1.58a7.84 7.84 0 0 0-.25 2.06c0 .853.09 1.593.27 2.22.18.627.43 1.147.75 1.56.32.413.703.72 1.15.92.447.2.93.3 1.45.3a5.111 5.111 0 0 0 2.54-.68l.44 1.36zm5.82-5.7l1.92-6.16h1.54c.267 1.947.457 3.94.57 5.98.113 2.04.217 4.173.31 6.4h-1.6c-.013-.72-.027-1.5-.04-2.34-.013-.84-.03-1.707-.05-2.6l-.06-2.72c-.02-.92-.043-1.813-.07-2.68l-1.8 5.64H29.3l-1.84-5.64c-.013.867-.03 1.757-.05 2.67a8390.819 8390.819 0 0 1-.17 7.67h-1.6c.04-1.013.087-2.053.14-3.12.053-1.067.117-2.127.19-3.18a112.413 112.413 0 0 1 .59-6.08h1.52l1.94 6.16zm14.34 4.96c-.4.16-.807.27-1.22.33-.413.06-.793.09-1.14.09-.467 0-.9-.077-1.3-.23-.4-.153-.75-.39-1.05-.71-.3-.32-.533-.73-.7-1.23-.167-.5-.25-1.097-.25-1.79 0-1.24.32-2.183.96-2.83.64-.647 1.473-.97 2.5-.97a4.662 4.662 0 0 1 .62.04c0-.84-.173-1.507-.52-2-.347-.493-.9-.74-1.66-.74-.467 0-.893.113-1.28.34-.387.227-.72.59-1 1.09-.28.5-.5 1.143-.66 1.93-.16.787-.24 1.74-.24 2.86 0 .84.08 1.65.24 2.43.16.78.41 1.463.75 2.05.34.587.773 1.057 1.3 1.41s1.157.53 1.89.53c.533 0 1.087-.087 1.66-.26l.16 1.34a7.7 7.7 0 0 1-1.96.28c-.973 0-1.817-.217-2.53-.65a5.457 5.457 0 0 1-1.76-1.71 7.918 7.918 0 0 1-1.03-2.42 11.419 11.419 0 0 1-.34-2.78c0-1.373.123-2.553.37-3.54.247-.987.587-1.793 1.02-2.42.433-.627.937-1.09 1.51-1.39a3.95 3.95 0 0 1 1.86-.45c1.173 0 2.1.397 2.78 1.19.68.793 1.02 1.897 1.02 3.31v6.9zM40.3 16.2c0 .267.017.553.05.86.033.307.11.59.23.85.12.26.29.48.51.66.22.18.523.27.91.27.107 0 .227-.007.36-.02a2.55 2.55 0 0 0 .42-.08v-4.9a1.756 1.756 0 0 0-.35-.08 2.825 2.825 0 0 0-.33-.02c-.573 0-1.017.223-1.33.67-.313.447-.47 1.043-.47 1.79zm31.18 3.52c0 .4-.133.753-.4 1.06-.267.307-.62.46-1.06.46-.453 0-.813-.153-1.08-.46-.267-.307-.4-.66-.4-1.06 0-.413.133-.773.4-1.08.267-.307.627-.46 1.08-.46.44 0 .793.153 1.06.46.267.307.4.667.4 1.08zm0-6.46c0 .4-.133.753-.4 1.06-.267.307-.62.46-1.06.46-.453 0-.813-.153-1.08-.46-.267-.307-.4-.66-.4-1.06 0-.413.133-.773.4-1.08.267-.307.627-.46 1.08-.46.44 0 .793.153 1.06.46.267.307.4.667.4 1.08zm12.78 1.46c-.04.227-.11.487-.21.78a2.88 2.88 0 0 1-.44.82 2.515 2.515 0 0 1-.73.64c-.293.173-.647.26-1.06.26-.36 0-.69-.07-.99-.21a8.4 8.4 0 0 1-.87-.47c-.32-.187-.627-.373-.92-.56a1.753 1.753 0 0 0-.96-.28.861.861 0 0 0-.48.13 1.112 1.112 0 0 0-.33.33 2.585 2.585 0 0 0-.23.45c-.067.167-.12.323-.16.47l-1.14-.32c.04-.227.113-.487.22-.78.107-.293.253-.567.44-.82s.423-.467.71-.64.643-.26 1.07-.26c.36 0 .69.07.99.21.3.14.59.297.87.47.32.187.63.373.93.56.3.187.617.28.95.28a.861.861 0 0 0 .48-.13c.133-.087.243-.197.33-.33.087-.133.163-.283.23-.45.067-.167.12-.323.16-.47l1.14.32zm5.4 4.58c.48 0 .883-.037 1.21-.11.327-.073.583-.18.77-.32.187-.14.32-.307.4-.5.08-.193.12-.403.12-.63 0-.333-.08-.617-.24-.85a2.321 2.321 0 0 0-.65-.62 5.285 5.285 0 0 0-.93-.48c-.347-.14-.707-.277-1.08-.41a16.41 16.41 0 0 1-1.07-.44 3.942 3.942 0 0 1-.94-.59 2.847 2.847 0 0 1-.67-.84c-.173-.327-.26-.73-.26-1.21 0-.853.253-1.547.76-2.08.507-.533 1.24-.873 2.2-1.02V7.14h1.48v2c.533.027 1.023.09 1.47.19.447.1.803.203 1.07.31l-.34 1.4a10.94 10.94 0 0 0-1.06-.33c-.427-.113-.967-.17-1.62-.17-.72 0-1.27.133-1.65.4-.38.267-.57.653-.57 1.16 0 .28.057.513.17.7.113.187.277.353.49.5.213.147.463.28.75.4s.61.247.97.38c.453.173.893.357 1.32.55.427.193.8.423 1.12.69.32.267.577.587.77.96.193.373.29.82.29 1.34 0 .787-.26 1.453-.78 2-.52.547-1.32.887-2.4 1.02v2.3h-1.48V20.7c-.84-.027-1.52-.12-2.04-.28-.52-.16-.907-.313-1.16-.46l.44-1.38c.36.173.787.337 1.28.49.493.153 1.113.23 1.86.23z" fill="#000"/></g></svg>
