<svg height="30" width="100" xmlns="http://www.w3.org/2000/svg"><g fill="none"><path d="m64.2 20.48a5.651 5.651 0 0 1 -1.49.59c-.527.127-1.09.19-1.69.19-.733 0-1.41-.13-2.03-.39a4.294 4.294 0 0 1 -1.61-1.18c-.453-.527-.81-1.197-1.07-2.01s-.39-1.773-.39-2.88c0-1.053.137-1.98.41-2.78s.643-1.473 1.11-2.02a4.614 4.614 0 0 1 1.64-1.24 4.847 4.847 0 0 1 2-.42c.493 0 .997.067 1.51.2a5.454 5.454 0 0 1 1.51.66l-.48 1.36c-.88-.507-1.707-.76-2.48-.76a3.05 3.05 0 0 0 -1.47.35c-.433.233-.803.57-1.11 1.01s-.543.967-.71 1.58a7.84 7.84 0 0 0 -.25 2.06c0 .853.09 1.593.27 2.22s.43 1.147.75 1.56.703.72 1.15.92.93.3 1.45.3a5.111 5.111 0 0 0 2.54-.68zm-14.2.78c-.733 0-1.357-.107-1.87-.32a3.163 3.163 0 0 1 -1.25-.9c-.32-.387-.553-.86-.7-1.42a7.425 7.425 0 0 1 -.22-1.88v-8.12h1.64v7.94c0 .627.057 1.15.17 1.57s.273.757.48 1.01.457.433.75.54.627.16 1 .16.707-.053 1-.16a1.71 1.71 0 0 0 .75-.54c.207-.253.367-.59.48-1.01s.17-.943.17-1.57v-7.94h1.64v8.12c0 .693-.073 1.32-.22 1.88s-.38 1.033-.7 1.42a3.16 3.16 0 0 1 -1.25.9c-.513.213-1.137.32-1.87.32z" fill="#f00"/><path d="m13.08 21-.74-3.24h-4.76l-.72 3.24h-1.68c.227-.88.48-1.833.76-2.86s.583-2.08.91-3.16.67-2.163 1.03-3.25a50.81 50.81 0 0 1 1.14-3.11h2.04a55.37 55.37 0 0 1 1.11 3.11c.353 1.087.687 2.17 1 3.25a203.78 203.78 0 0 1 1.65 6.02zm-3.1-10.94c-.307.84-.64 1.813-1 2.92s-.7 2.247-1.02 3.42h4a63.22 63.22 0 0 0 -.99-3.47 52.614 52.614 0 0 0 -.99-2.87zm14.22 10.42a5.651 5.651 0 0 1 -1.49.59c-.527.127-1.09.19-1.69.19-.733 0-1.41-.13-2.03-.39a4.294 4.294 0 0 1 -1.61-1.18c-.453-.527-.81-1.197-1.07-2.01s-.39-1.773-.39-2.88c0-1.053.137-1.98.41-2.78s.643-1.473 1.11-2.02a4.614 4.614 0 0 1 1.64-1.24 4.847 4.847 0 0 1 2-.42c.493 0 .997.067 1.51.2a5.454 5.454 0 0 1 1.51.66l-.48 1.36c-.88-.507-1.707-.76-2.48-.76a3.05 3.05 0 0 0 -1.47.35c-.433.233-.803.57-1.11 1.01s-.543.967-.71 1.58a7.84 7.84 0 0 0 -.25 2.06c0 .853.09 1.593.27 2.22s.43 1.147.75 1.56.703.72 1.15.92.93.3 1.45.3a5.111 5.111 0 0 0 2.54-.68zm5.82-5.7 1.92-6.16h1.54c.267 1.947.457 3.94.57 5.98s.217 4.173.31 6.4h-1.6c-.013-.72-.027-1.5-.04-2.34s-.03-1.707-.05-2.6l-.06-2.72c-.02-.92-.043-1.813-.07-2.68l-1.8 5.64h-1.44l-1.84-5.64c-.013.867-.03 1.757-.05 2.67a8390.819 8390.819 0 0 1 -.17 7.67h-1.6c.04-1.013.087-2.053.14-3.12s.117-2.127.19-3.18a112.413 112.413 0 0 1 .59-6.08h1.52zm14.34 4.96c-.4.16-.807.27-1.22.33s-.793.09-1.14.09c-.467 0-.9-.077-1.3-.23s-.75-.39-1.05-.71-.533-.73-.7-1.23-.25-1.097-.25-1.79c0-1.24.32-2.183.96-2.83s1.473-.97 2.5-.97a4.662 4.662 0 0 1 .62.04c0-.84-.173-1.507-.52-2s-.9-.74-1.66-.74c-.467 0-.893.113-1.28.34s-.72.59-1 1.09-.5 1.143-.66 1.93-.24 1.74-.24 2.86c0 .84.08 1.65.24 2.43s.41 1.463.75 2.05.773 1.057 1.3 1.41 1.157.53 1.89.53c.533 0 1.087-.087 1.66-.26l.16 1.34a7.7 7.7 0 0 1 -1.96.28c-.973 0-1.817-.217-2.53-.65a5.457 5.457 0 0 1 -1.76-1.71 7.918 7.918 0 0 1 -1.03-2.42 11.419 11.419 0 0 1 -.34-2.78c0-1.373.123-2.553.37-3.54s.587-1.793 1.02-2.42.937-1.09 1.51-1.39a3.95 3.95 0 0 1 1.86-.45c1.173 0 2.1.397 2.78 1.19s1.02 1.897 1.02 3.31zm-4.06-3.54c0 .267.017.553.05.86s.11.59.23.85.29.48.51.66.523.27.91.27c.107 0 .227-.007.36-.02a2.55 2.55 0 0 0 .42-.08v-4.9a1.756 1.756 0 0 0 -.35-.08 2.825 2.825 0 0 0 -.33-.02c-.573 0-1.017.223-1.33.67s-.47 1.043-.47 1.79zm31.18 3.52c0 .4-.133.753-.4 1.06s-.62.46-1.06.46c-.453 0-.813-.153-1.08-.46s-.4-.66-.4-1.06c0-.413.133-.773.4-1.08s.627-.46 1.08-.46c.44 0 .793.153 1.06.46s.4.667.4 1.08zm0-6.46c0 .4-.133.753-.4 1.06s-.62.46-1.06.46c-.453 0-.813-.153-1.08-.46s-.4-.66-.4-1.06c0-.413.133-.773.4-1.08s.627-.46 1.08-.46c.44 0 .793.153 1.06.46s.4.667.4 1.08zm12.78 1.46c-.04.227-.11.487-.21.78a2.88 2.88 0 0 1 -.44.82 2.515 2.515 0 0 1 -.73.64c-.293.173-.647.26-1.06.26-.36 0-.69-.07-.99-.21a8.4 8.4 0 0 1 -.87-.47c-.32-.187-.627-.373-.92-.56a1.753 1.753 0 0 0 -.96-.28.861.861 0 0 0 -.48.13 1.112 1.112 0 0 0 -.33.33 2.585 2.585 0 0 0 -.23.45c-.067.167-.12.323-.16.47l-1.14-.32c.04-.227.113-.487.22-.78s.253-.567.44-.82.423-.467.71-.64.643-.26 1.07-.26c.36 0 .69.07.99.21s.59.297.87.47c.32.187.63.373.93.56s.617.28.95.28a.861.861 0 0 0 .48-.13c.133-.087.243-.197.33-.33s.163-.283.23-.45.12-.323.16-.47zm5.4 4.58c.48 0 .883-.037 1.21-.11s.583-.18.77-.32.32-.307.4-.5.12-.403.12-.63c0-.333-.08-.617-.24-.85a2.321 2.321 0 0 0 -.65-.62 5.285 5.285 0 0 0 -.93-.48c-.347-.14-.707-.277-1.08-.41a16.41 16.41 0 0 1 -1.07-.44 3.942 3.942 0 0 1 -.94-.59 2.847 2.847 0 0 1 -.67-.84c-.173-.327-.26-.73-.26-1.21 0-.853.253-1.547.76-2.08s1.24-.873 2.2-1.02v-2.06h1.48v2c.533.027 1.023.09 1.47.19s.803.203 1.07.31l-.34 1.4a10.94 10.94 0 0 0 -1.06-.33c-.427-.113-.967-.17-1.62-.17-.72 0-1.27.133-1.65.4s-.57.653-.57 1.16c0 .28.057.513.17.7s.277.353.49.5.463.28.75.4.61.247.97.38c.453.173.893.357 1.32.55s.8.423 1.12.69.577.587.77.96.29.82.29 1.34c0 .787-.26 1.453-.78 2s-1.32.887-2.4 1.02v2.3h-1.48v-2.24c-.84-.027-1.52-.12-2.04-.28s-.907-.313-1.16-.46l.44-1.38c.36.173.787.337 1.28.49s1.113.23 1.86.23z" fill="#000"/></g></svg>
