<svg xmlns="http://www.w3.org/2000/svg" width="600" height="200"><g fill="#2A0854"><path d="M287.56 138.469h.02v.03c0 14.31-11.6 25.9-25.91 25.9-9.05 0-17.01-4.631-21.64-11.66l9.39-5.5c2.73 3.819 7.2 6.31 12.25 6.31 8.31 0 15.05-6.74 15.05-15.05v-.03l-.03-17.79c0-.51-.26-.97-.69-1.22-.44-.25-.97-.24-1.4 0-3.93 2.28-8.4 3.48-12.97 3.48-11.65 0-21.89-7.86-25-18.95h11.66c2.6 4.939 7.72 8.08 13.34 8.08s10.75-3.141 13.35-8.08h12.6l-.02 34.48zM151.75 71.255l-.146 10.815a14.907 14.907 0 0 0-1.384-.056c-4.024 0-11.811.564-14.661 3.401-2.851 2.85-3.416 5.637-3.416 9.662v27.933h-10.871V71.129h10.871v2.264c0 .504.266.965.698 1.216.434.251.965.237 1.397 0 3.927-2.277 11.412-3.479 15.981-3.479.855-.001.693.041 1.531.125zM320 112.11c-2.86 0-5.64-.811-8.05-2.33a1.41 1.41 0 0 1-.641-1.23c.03-.49.311-.95.74-1.17L344.9 89.89c-.221-.82-.5-1.601-.811-2.37-.64-1.641-1.45-3.2-2.42-4.65-4.8-7.34-12.89-11.71-21.67-11.71-14.29 0-25.92 11.62-25.92 25.92 0 14.28 11.63 25.9 25.92 25.9 8.74 0 16.92-4.461 21.69-11.721l-9.4-5.51A15.094 15.094 0 0 1 320 112.11zm-15.05-15.03c0-8.3 6.75-15.05 15.05-15.05 4.24 0 8.23 1.75 11.07 4.85l-25.721 13.61a14.328 14.328 0 0 1-.399-3.41zM467.848 36.355h10.87v86.585h-10.87zM435.788 71.059a25.87 25.87 0 0 0-12.966 3.479 1.422 1.422 0 0 1-1.397 0 1.398 1.398 0 0 1-.698-1.215V36.355H409.84v86.585h10.887v-2.263c0-.505.265-.964.698-1.217.225-.126.462-.181.699-.181s.488.055.698.193a25.86 25.86 0 0 0 12.966 3.467c14.31 0 25.949-11.64 25.949-25.933 0-14.307-11.64-25.947-25.949-25.947zm-.991 42.001c-8.858 0-16.056-7.193-16.056-16.053s7.197-16.07 16.056-16.07 16.056 7.211 16.056 16.07-7.197 16.053-16.056 16.053zM390.739 71.059v2.264a1.4 1.4 0 0 1-.699 1.215 1.42 1.42 0 0 1-1.396 0 25.955 25.955 0 0 0-12.967-3.479c-14.309 0-25.948 11.64-25.948 25.948 0 14.293 11.64 25.933 25.948 25.933 4.569 0 9.042-1.201 12.967-3.479a1.418 1.418 0 0 1 1.396 0 1.4 1.4 0 0 1 .699 1.217v2.263h10.873V71.059h-10.873zm-14.167 41.919c-8.804 0-15.974-7.169-15.974-15.971 0-8.818 7.17-15.986 15.974-15.986 8.802 0 15.971 7.168 15.971 15.986-.001 8.802-7.169 15.971-15.971 15.971zM88.948 71.059a25.944 25.944 0 0 0-12.967 3.479 1.422 1.422 0 0 1-1.397 0 1.398 1.398 0 0 1-.698-1.215V36.355H63v86.585h10.886v-2.263c0-.505.265-.964.698-1.217.223-.126.461-.181.698-.181.238 0 .489.055.699.181a25.829 25.829 0 0 0 12.967 3.479c14.309 0 25.948-11.64 25.948-25.933 0-14.307-11.64-25.947-25.948-25.947zm-.965 41.974c-8.83 0-16.013-7.196-16.013-16.025 0-8.846 7.183-16.042 16.013-16.042 8.846 0 16.028 7.196 16.028 16.042 0 8.828-7.182 16.025-16.028 16.025zM217.484 36.355v36.968c0 .503-.266.964-.699 1.215a1.422 1.422 0 0 1-1.397 0 25.95 25.95 0 0 0-12.967-3.479c-14.309 0-25.947 11.64-25.947 25.948 0 14.293 11.639 25.933 25.947 25.933 4.569 0 9.041-1.201 12.967-3.479a1.42 1.42 0 0 1 1.397 0c.434.253.699.712.699 1.217v2.263h10.871V36.355h-10.871zm-14.448 76.314c-8.649 0-15.691-7.027-15.691-15.662 0-8.65 7.042-15.692 15.691-15.692 8.636 0 15.664 7.042 15.664 15.692 0 8.635-7.029 15.662-15.664 15.662z"/><circle cx="164.688" cy="53.256" r="7.49"/><path d="M159.252 71.059h10.87v51.881h-10.87zM512.089 112.11c-2.87 0-5.649-.811-8.04-2.33a1.39 1.39 0 0 1-.649-1.23c.02-.49.3-.95.739-1.17L537 89.89c-.24-.82-.5-1.601-.82-2.37a25.228 25.228 0 0 0-2.42-4.65c-4.8-7.34-12.899-11.71-21.67-11.71-14.3 0-25.92 11.62-25.92 25.92 0 14.28 11.62 25.9 25.92 25.9 8.74 0 16.92-4.461 21.68-11.721l-9.39-5.51a15.097 15.097 0 0 1-12.291 6.361zm0-30.08c4.28 0 8.271 1.77 11.12 4.9l-25.76 13.64c-.271-1.12-.41-2.29-.41-3.49.001-8.3 6.751-15.05 15.05-15.05z"/></g><path fill="#429BFF" d="M274.598 74.538a25.961 25.961 0 0 0-12.968-3.479c-13.833 0-25.18 10.885-25.906 24.551h12.311c.698-7.658 5.757-12.282 13.596-12.282s12.897 4.624 13.596 12.282h12.311c-.476-8.706-5.339-16.685-12.94-21.072z"/></svg>