<svg width="1432" height="429" viewBox="0 0 1432 429" xmlns="http://www.w3.org/2000/svg"><circle cx="1217.65982" cy="214.17617" fill="#df1f26" r="214.34018"/><g fill="#7f141b"><path d="m1164.40568 208.12548c1.40623-.44367 2.7618-.83361 4.102-1.20819a44.67833 44.67833 0 0 1 5.45528-7.08027c.076-.07139.19266-.17655.70388-.14584 2.03719.129 5.03694 1.92665 8.16257 4.37758a50.03087 50.03087 0 0 1 13.94024.40759c-5.027-5.22423-14.01853-13.3776-21.54707-13.83355a9.77691 9.77691 0 0 0 -7.38884 2.51156c-2.97673 2.73033-7.74194 9.78066-12.8234 18.22724.55574-.20878 1.11762-.42371 1.66261-.62328q4.04138-1.47378 7.73273-2.63284z"/><path d="m1395.42784 173.20618c-.80367.16887-19.59278 4.04138-34.25456 12.7405-9.95413 5.892-18.15892 14.6042-22.61172 19.86835.261.45288.4429.93569.6939 1.39394-.568-1.04085-1.09228-2.09859-1.7148-3.11028.02149.03531.04759.066.06908.10132 6.02867-6.2789 24.23288-26.60474 31.5465-49.8006a3.63067 3.63067 0 0 0 -6.92368-2.1884c-6.39174 20.31509-22.35842 38.91231-28.82538 45.88972.07906.10132.14354.21876.22183.32162-3.91933-5.12521-8.3821-9.4268-12.729-11.99363-4.93178-2.92068-9.72309-3.61535-13.37529-.73381a10.99131 10.99131 0 0 0 -1.32026 1.43232c-4.482-3.79651-10.77008-7.00811-19.61811-8.25929-12.3045-1.73859-24.07322-3.4841-34.63145-2.2122-8.14031-20.50852-16.62681-44.267-18.53044-58.43217-3.87327-28.82231-25.39808-106.42663-45.65177-108.2842-18.6118-1.70713-35.99622 78.24065 43.43957 175.42394-.01382.01151-.02533.02456-.03838.03607-17.70835-16.96532-43.108-42.52229-52.52478-58.08292-15.05862-24.87919-65.77573-87.4364-85.08758-81.05387-18.64557 6.163-.11513 94.44759 127.54462 152.04769-.69083 1.26653-1.38627 2.52-2.03565 3.92547-4.48888 9.72-8.59012 17.40821-11.88 23.793l-.00537-.00153c-.73843-8.80965-2.91762-18.34084-10.59124-19.78545-9.29784-1.75318-19.53291-.60333-32.82684 3.58005q-3.69365 1.16865-7.73195 2.63361c-3.91088 1.43539-8.07584 3.085-12.53708 4.95327-5.86594 2.46243-12.88019 7.20615-20.16311 13.59252-1.72708 1.50141-3.45186 3.09953-5.20888 4.78363a170.94342 170.94342 0 0 0 -17.20787 19.48839c-1.41928 1.86909-2.794 3.77272-4.14193 5.707a155.922 155.922 0 0 0 -9.58569 15.65273c-1.12375 2.11472-2.20452 4.26628-3.21007 6.42628a104.43084 104.43084 0 0 0 -7.49016 21.51561c-.53655 2.355-.95258 4.69766-1.27113 7.03882a69.1419 69.1419 0 0 0 -.5473 7.01962c-1.19284 42.63667 2.17306 38.47786 6.98432 36.29559 4.80436-2.16461 2.0725-15.14459 4.931-19.86221.51275-.84665 2.1508-1.92358 4.58406-3.17322a13.6907 13.6907 0 0 0 4.04368 2.43019c3.93237 1.53519 7.6905 1.318 8.39438-.48435.62789-1.6081-1.46149-3.894-4.69766-5.46756.51659-.218 1.02167-.43369 1.55975-.657 2.25672-.95335 4.67463-1.92359 7.20308-2.92914 1.714-.69236 3.468-1.38934 5.24419-2.09629 2.16154-.85279 4.39293-1.73859 6.60129-2.61288 4.31847-1.747 8.60931-3.524 12.60079-5.2772 2.36265-1.03011 4.59481-2.06943 6.65809-3.07651 1.8238-.88273 3.50329-1.7432 5.0047-2.59292 3.38892-1.90286 7.12019-4.20026 10.995-6.83 2.23216-1.50524 4.50884-3.1287 6.807-4.86039 2.738-2.04486 5.48981-4.22482 8.19251-6.51992-.20035 1.58584-.36461 3.0458-.44751 4.19258l-.29936 4.31848c-.98329 14.33247-3.02585 44.155-6.98432 60.29588-4.70918 19.199-1.275 36.978 3.09723 46.37023a4.53339 4.53339 0 0 0 8.22015-3.82567c-3.752-8.05818-6.66194-23.47066-2.51387-40.38455 4.14653-16.90084 6.14995-46.13075 7.22611-61.83491l.29783-4.29314c.23872-3.33442 1.03855-8.7306 2.16-14.99184a92.7473 92.7473 0 0 0 10.34714-12.85947 61.22993 61.22993 0 0 0 3.95771-6.91908s.69543.1067 1.89441.26713c2.19685.27786 6.08317.75991 10.46382 1.16827a22.28193 22.28193 0 0 0 11.81631 3.11873c1.50294 7.44948 3.012 15.53529 3.44035 19.94741 1.18593 12.23542-.38841 25.12175-1.77621 36.49209-2.21988 18.16046-4.13425 33.84236 5.24879 42.60366a4.53317 4.53317 0 0 0 6.18679-6.62739c-6.011-5.61186-4.35455-19.17291-2.43787-34.87708 1.44691-11.83243 3.08419-25.24379 1.80154-38.4671-.446-4.594-1.9113-12.56625-3.39967-20.00115a52.50134 52.50134 0 0 0 7.79337-2.26593c2.77638 23.585 5.88052 43.04963 9.54961 51.07864 2.37493 5.19967 3.27915 11.68429 4.23711 18.55117 1.96426 14.0761 4.19105 30.0282 19.30033 43.24152a4.53328 4.53328 0 1 0 5.96879-6.82466c-12.56548-10.98884-14.45682-24.55219-16.28907-37.66957-1.05236-7.54083-2.04563-14.66408-4.97246-21.06733-3.3797-7.39652-6.51762-28.93362-8.94321-49.6586 4.85886.64631 9.32931 4.28086 21.24081-1.68563 5.42994-2.71958 10.93358-4.80513 16.16932-6.88991.26789 1.70789.535 3.41886.8029 5.14747l.01612.10363a4.32629 4.32629 0 0 0 .02763.78371c.03378.1397.119.489.25177 1.00938 4.8888 31.48663 10.21819 63.6495 29.93609 77.98505a4.53228 4.53228 0 1 0 5.33093-7.33127c-6.8807-5.00317-11.78945-13.33538-15.51611-23.35245 5.77844 9.129 12.8564 17.386 21.36746 22.36916a4.53331 4.53331 0 1 0 4.58253-7.8233c-22.72073-13.30467-34.85943-56.28752-36.82139-63.75465-.07139-.45825-.14431-.92265-.21493-1.3786q-.58489-3.77079-1.16981-7.47634c6.622-3.16862 12.29683-6.99123 15.903-13.20105a79.89822 79.89822 0 0 1 4.47967-6.84615c4.02065 5.74235 8.554 12.07192 12.31371 20.213 11.15772 24.16072 16.97223 21.1794 20.51313 18.94493s1.64265-39.44578 1.64265-39.44578c-.11207-4.88035-1.69024-10.3126-4.07438-15.6466.18269.4099.43215.79984.60333 1.21126 3.15787-3.97842 11.97673-14.36318 22.7591-20.75568 13.59252-8.062 31.82436-11.8286 32.00858-11.85009a3.63354 3.63354 0 0 0 -1.44614-7.12172z"/></g><g fill="#fff"><path d="m1199.791 236.93848q0 88.18912-82.18168 88.18675-79.72981 0-79.72744-86.14075v-113.033h44.23342v113.579q0 47.50891 37.13176 47.50891 36.45055 0 36.44819-45.87116v-115.21679h44.09575z"/><path d="m1382.72028 314.74809q-21.43313 10.38189-55.973 10.37714-45.04516 0-70.85037-26.484-25.79808-26.48166-25.80045-70.57979 0-46.96062 29.00949-76.17185 29.00947-29.216 75.2889-29.21836 28.66768 0 48.32541 7.23931v42.45326q-19.66009-11.73481-44.77459-11.73956-27.57824 0-44.504 17.33638-16.93289 17.33875-16.92813 46.963 0 28.3971 15.96922 45.254 15.97159 16.86167 43.00392 16.86167a91.7187 91.7187 0 0 0 47.23358-12.56081z"/><g><path d="m1185.944 151.206h-9.722v-98.611h77.268v9.722h-67.546z"/><path d="m1227.381 392.591h-9.722v-38.347h-51.705v-104.023h9.722v94.301h51.705z"/><path d="m1115.81495 239.59685h55.21819v9.72205h-55.21819z"/><path d="m1317.86549 66.86437h9.72205v74.3917h-9.72205z"/><path d="m1278.909 111.156h-32.807v9.722h23.085v58.11h9.722z"/><path d="m1310.522 385.902h-34.592v-90.513h10.861v79.652h23.731z"/><path d="m1061.988 144.978h-10.862v-59.306h42.624v10.862h-31.762z"/><path d="m1269.12708 77.95358a20.498 20.498 0 1 1 20.49795-20.498 20.52088 20.52088 0 0 1 -20.49795 20.498zm0-31.27385a10.7759 10.7759 0 1 0 10.7759 10.7759 10.78617 10.78617 0 0 0 -10.7759-10.7759z"/><path d="m1323.21546 76.2826a20.498 20.498 0 1 1 20.498-20.498 20.52088 20.52088 0 0 1 -20.498 20.498zm0-31.27385a10.7759 10.7759 0 1 0 10.7759 10.7759 10.78617 10.78617 0 0 0 -10.7759-10.7759z"/><path d="m1250.963 115.58538a20.498 20.498 0 1 1 -20.49795-20.4932 20.52088 20.52088 0 0 1 20.49795 20.4932zm-9.722 0a10.7759 10.7759 0 1 0 -10.7759 10.77591 10.78516 10.78516 0 0 0 10.7759-10.77591z"/><path d="m1321.74861 394.76509a14.32436 14.32436 0 1 1 14.32673-14.32673 14.33969 14.33969 0 0 1 -14.32673 14.32673zm0-22.4585a8.13415 8.13415 0 1 0 8.13652 8.13177 8.14435 8.14435 0 0 0 -8.13652-8.13177z"/><path d="m1222.40619 424.40119a18.84359 18.84359 0 1 1 18.846-18.846 18.8667 18.8667 0 0 1 -18.846 18.846zm0-29.54116a10.69758 10.69758 0 1 0 10.7 10.6952 10.70919 10.70919 0 0 0 -10.7-10.69523z"/><path d="m1101.00877 104.80314a13.05688 13.05688 0 1 1 13.05923-13.05926 13.06943 13.06943 0 0 1 -13.05923 13.05926zm0-19.92355a6.86667 6.86667 0 1 0 6.869 6.86429 6.87407 6.87407 0 0 0 -6.869-6.86429z"/><path d="m1106.86194 256.9095a13.05688 13.05688 0 1 1 13.0545-13.05451 13.06943 13.06943 0 0 1 -13.0545 13.05451zm0-19.92355a6.86667 6.86667 0 1 0 6.86429 6.869 6.87608 6.87608 0 0 0 -6.86429-6.86895z"/></g></g><path d="m903.86293 264.37668h-.68358q-9.9689 32.49148-39.17776 32.48911-18.70591 0-30.10132-13.78556-11.40013-13.79268-11.40252-37.13177 0-30.85372 15.76985-51.26386 15.76509-20.40775 41.43263-20.40775a31.31316 31.31316 0 0 1 17.54051 5.0509q7.71165 5.04853 9.89769 12.69373h.54591q.27058-3.81666 1.36717-15.69864h17.06105q-6.4157 75.22245-6.41332 76.58486 0 28.26182 16.24455 28.25945 14.73972 0 24.5045-15.974 9.75527-15.97159 9.76-41.36143 0-37.54-23.75445-61.29446t-65.79947-23.75446q-40.54491 0-67.029 28.39237-26.48879 28.3971-26.484 70.988 0 41.91209 25.18808 67.64608 25.1857 25.72688 67.91666 25.734 33.71623 0 57.606-11.19839v16.92814q-23.61911 10.10424-58.97311 10.10186-49.68783 0-80.06447-29.96365t-30.37665-78.42673q0-49.96554 31.87673-82.86526 31.8791-32.89737 81.43164-32.90211 46.41233 0 76.86018 27.57587 30.44075 27.57824 30.44311 71.94694 0 32.49148-16.04042 53.30986-16.04282 20.81364-39.11131 20.816-29.89958.00001-30.03488-32.4891zm-24.438-74.26353q-16.92576 0-27.37174 16.10689-10.43886 16.10688-10.44361 39.999 0 16.10688 7.03045 25.3922a22.36917 22.36917 0 0 0 18.77475 9.28057q16.92576 0 26.82108-16.85693 9.89769-16.86168 9.89769-44.70813-.00003-29.21597-24.70865-29.2136z" fill="#231f20"/><g fill="#df1f26"><path d="m104.3905 122.91588a135.12459 135.12459 0 0 0 -16.28431.97163v39.57881a71.497 71.497 0 0 1 19.83281-2.62262c16.77089 0 31.694 3.93393 44.77043 11.70458v-42.39648c-13.07651-4.80774-29.21485-7.23592-48.31893-7.23592zm1.11794 164.24165a70.3799 70.3799 0 0 1 -17.40225-2.03929v39.77326c2.81918.19445 5.68761.29167 8.65276.29167q34.48882 0 55.95043-10.34406v-40.25937a91.92359 91.92359 0 0 1 -47.20094 12.57779zm-105.43532-58.95562q0 44.07088 25.81232 70.51436 19.75977 20.25033 50.84612 25.00973v-42.83276a50.1527 50.1527 0 0 1 -14.24247-10.58712q-15.96892-16.89972-15.993-45.21235 0-29.64765 16.96493-46.91255a54.99687 54.99687 0 0 1 13.2705-10.053v-42.25a95.70929 95.70929 0 0 0 -47.63827 26.22443q-29.02013 29.21102-29.02013 76.09926z"/><path d="m211.67362 182.11515h-47.78424l50.83411 124.71285 19.47407-51.97474c-.19464-.92244-22.52394-72.73811-22.52394-72.73811zm61.29743 0-52.256 139.37714-7.38885 17.33752q-6.56256 15.661-23.18718 15.68593a36.43227 36.43227 0 0 1 -18.71482-5.0508v34.38278c6.70824 2.33155 15.31234 3.54563 25.81232 3.54563q41.19646 0 61.68611-54.44013l56.77642-150.83807z"/><path d="m463.863 197.26636q-14.65516-18.575-41.65812-18.551-22.82343 0-37.47889 14.61767v27.3413a27.19784 27.19784 0 0 1 20.80473-8.93552c9.188 0 16.2849 3.20536 21.24324 9.71271s7.43751 15.54009 7.43751 27.09824c0 13.8891-2.72246 24.67066-8.11812 32.24627s-13.02781 11.3637-22.84717 11.3637c-7.43751 0-13.61051-2.42818-18.52019-7.38175v29.8667c8.06946 7.04207 18.47153 10.5385 31.062 10.5385q28.50927 0 45.59643-21.12562 17.06189-21.12443 17.06158-56.09056c0-21.41668-4.861-38.36531-14.583-50.70064zm-130.80977 124.51764h43.11726v-.53472h-.68061v-139.13413h.68061v-67.11515h-43.11726z"/><path d="m615.28455 196.83005q-16.406-17.77471-46.17973-18.1147v29.08951c15.2631.53413 22.94389 10.53851 22.94389 29.96393h-22.94389v26.46689h62.90136v-18.16268q0-31.10513-16.72163-49.24295zm-46.17973 97.07848v31.27464h.2427q30.989 0 50.40879-10.34406v-31.1294q-17.499 10.9268-40.54077 10.9268a65.61273 65.61273 0 0 1 -10.11072-.72798zm-71.02007-39.77385q0 33.50867 18.71541 52.303 16.333 16.31729 44.18654 18.45379v-32.87758c-12.39525-4.12719-19.15274-13.40359-20.17337-27.77821h20.17337v-26.46689h-20.41665q1.60392-12.82086 9.188-21.41669a24.3754 24.3754 0 0 1 11.22865-7.57561v-29.72149a66.50848 66.50848 0 0 0 -42.67993 19.96014q-20.19677 20.32416-20.22202 55.11954z"/><path d="m738.21943 179.687c-12.39525 0-22.166 4.6133-29.21421 13.88852v33.16928q7.87365-9.97978 21.72864-10.00438a37.31135 37.31135 0 0 1 18.13152 4.2256v-39.67666q-3.79174-1.60327-10.64595-1.60236zm-80.5469 142.097h43.16532v-139.66885h-43.16532z"/></g></svg>