<?xml version="1.0" encoding="UTF-8" standalone="no"?>
<svg
   xmlns:dc="http://purl.org/dc/elements/1.1/"
   xmlns:cc="http://creativecommons.org/ns#"
   xmlns:rdf="http://www.w3.org/1999/02/22-rdf-syntax-ns#"
   xmlns:svg="http://www.w3.org/2000/svg"
   xmlns="http://www.w3.org/2000/svg"
   height="321.89999"
   width="792.09998"
   id="svg48"
   xml:space="preserve"
   viewBox="0 0 792.09998 321.89999"
   y="0px"
   x="0px"
   version="1.1"><metadata
   id="metadata54"><rdf:RDF><cc:Work
       rdf:about=""><dc:format>image/svg+xml</dc:format><dc:type
         rdf:resource="http://purl.org/dc/dcmitype/StillImage" /></cc:Work></rdf:RDF></metadata><defs
   id="defs52" />
<style
   id="style2"
   type="text/css">
	.st0{fill:#1D4094;}
	.st1{fill:#00AE65;}
	.st2{fill:#FFFFFF;}
</style>
<g
   transform="translate(0,-1.1)"
   id="Layer_1">
	<g
   id="g44">
		<g
   id="g32">
			<path
   style="fill:#1d4094"
   id="path4"
   d="m 43.8,295.7 c 0,5.5 -5.3,7.1 -11.4,7.1 H 16.5 v 15 c 5.5,1 8,3.3 8,4.7 v 0.3 H 5.8 V 274.4 C 2.5,273.3 0,271.1 0,269.5 v -0.3 h 49.2 v 13.5 h -0.3 c -1.5,0 -3.9,-2.5 -4.9,-5.8 H 16.5 V 295 h 27.3 z"
   class="st0" />
			<path
   style="fill:#1d4094"
   id="path6"
   d="M 72.4,322.9 H 53 v -0.4 c 0,-1.5 2.1,-3.9 4.8,-4.7 V 282.9 C 55.1,282 53,279.6 53,278.2 v -0.4 h 19.4 v 0.4 c 0,1.5 -2.1,3.9 -4.8,4.7 v 34.9 c 2.8,0.9 4.8,3.3 4.8,4.7 z"
   class="st0" />
			<path
   style="fill:#1d4094"
   id="path8"
   d="m 116.1,299.9 c 0,4.8 -4.6,6.7 -10,6.7 h -13 v 11.2 c 3.9,0.7 7.5,3.3 7.5,4.7 v 0.4 H 83.4 v -40.1 c -2.7,-0.9 -4.8,-3.3 -4.8,-4.7 v -0.4 h 42.1 v 12.2 h -0.4 c -1.5,0 -3.9,-2.1 -4.7,-4.8 H 93.2 v 14.1 h 22.9 z"
   class="st0" />
			<path
   style="fill:#1d4094"
   id="path10"
   d="m 167.1,277.7 v 12.2 h -0.4 c -1.5,0 -3.9,-2.1 -4.7,-4.8 h -11.1 v 32.7 c 3.6,0.9 6.5,3.3 6.5,4.7 v 0.4 h -22.9 v -0.4 c 0,-1.5 2.9,-3.9 6.5,-4.7 v -32.7 h -11.8 c -0.9,2.7 -3.3,4.8 -4.7,4.8 h -0.4 v -12.2 z"
   class="st0" />
			<path
   style="fill:#1d4094"
   id="path12"
   d="m 185.2,296.3 c 3.2,-0.7 7.1,-1.3 13.8,-1.3 6.7,0 10.3,0.7 13.9,1.3 v -13.4 c -2.8,-0.9 -4.8,-3.3 -4.8,-4.7 v -0.4 h 19.4 v 0.4 c 0,1.5 -2.1,3.9 -4.8,4.7 v 34.9 c 2.7,0.9 4.8,3.3 4.8,4.7 v 0.4 h -14.6 v -18.4 c -3.6,-0.6 -7.2,-1.3 -13.9,-1.3 -6.6,0 -10.6,0.6 -13.8,1.3 v 13.2 c 2.7,0.9 4.8,3.3 4.8,4.7 v 0.4 h -14.6 v -40.1 c -2.8,-0.9 -4.8,-3.3 -4.8,-4.7 v -0.4 H 190 v 0.4 c 0,1.5 -2.1,3.9 -4.8,4.7 z"
   class="st0" />
			<path
   style="fill:#1d4094"
   id="path14"
   d="m 318.4,269.4 v 13.5 h -0.2 c -1.6,0 -4,-2.5 -5.1,-5.8 h -16.4 v 40.8 c 3.2,1 5.8,3.4 5.8,4.9 v 0.2 h -22.3 v -0.2 c 0,-1.6 2.4,-4 5.8,-4.9 V 277 h -16.3 c -1,3.3 -3.3,5.8 -4.9,5.8 h -0.3 v -13.5 h 53.9 z"
   class="st0" />
			<path
   style="fill:#1d4094"
   id="path16"
   d="m 335.6,296.3 c 3.2,-0.7 7.1,-1.3 13.7,-1.3 6.7,0 10.3,0.7 13.9,1.3 v -13.4 c -2.7,-0.9 -4.8,-3.3 -4.8,-4.7 v -0.4 h 19.4 v 0.4 c 0,1.5 -2.1,3.9 -4.8,4.7 v 34.9 c 2.8,0.9 4.8,3.3 4.8,4.7 v 0.4 h -14.6 v -18.4 c -3.6,-0.6 -7.2,-1.3 -13.9,-1.3 -6.6,0 -10.6,0.6 -13.7,1.3 v 13.2 c 2.7,0.9 4.8,3.3 4.8,4.7 v 0.4 H 325.8 V 282.7 C 323,281.8 321,279.4 321,278 v -0.4 h 19.4 v 0.4 c 0,1.5 -2.1,3.9 -4.8,4.7 z"
   class="st0" />
			<path
   style="fill:#1d4094"
   id="path18"
   d="m 403.9,322.9 h -19.4 v -0.4 c 0,-1.5 2.1,-3.9 4.8,-4.7 v -34.9 c -2.8,-0.9 -4.8,-3.3 -4.8,-4.7 v -0.4 h 19.4 v 0.4 c 0,1.5 -2.1,3.9 -4.8,4.7 v 34.9 c 2.8,0.9 4.8,3.3 4.8,4.7 z"
   class="st0" />
			<path
   style="fill:#1d4094"
   id="path20"
   d="m 440.8,297.8 c 8.3,0 9.8,-2.7 9.8,-6.4 0,-3.7 -1.5,-6.4 -9.8,-6.4 h -15.7 v 12.7 h 15.7 z m -10.9,25.1 h -14.6 v -5.2 -34.9 c -2.7,-0.9 -4.8,-3.3 -4.8,-4.7 v -0.4 h 31.7 c 11,0 18.2,3.6 18.2,13.4 0,7.6 -4.8,11.3 -12.4,12.7 l 9.6,13.9 c 2.4,0.3 5.6,2.8 5.6,4.7 v 0.4 H 449.5 L 437.3,304.4 H 425 v 13.2 c 2.7,0.9 4.8,3.3 4.8,4.7 v 0.6 z"
   class="st0" />
			<path
   style="fill:#1d4094"
   id="path22"
   d="m 496.3,315.5 c 10.7,0 16,-3.3 16,-15.2 0,-11.9 -5.2,-15.2 -16,-15.2 H 483 v 30.4 z m -23.1,-32.6 c -2.8,-0.9 -4.8,-3.3 -4.8,-4.7 v -0.4 h 31.4 c 12.6,0 22.3,7.2 22.3,22.6 0,15.4 -9.7,22.6 -22.3,22.6 h -26.6 z"
   class="st0" />
			<path
   style="fill:#1d4094"
   id="path24"
   d="m 593.7,314.3 c 9.1,0 12.5,-2.6 12.5,-7.4 0,-4.8 -3.4,-7.7 -12.5,-7.7 h -20.9 v 15 h 20.9 z m -0.2,-23.5 c 6.5,0 11.3,-1.5 11.3,-7.1 0,-5.2 -4.8,-5.9 -11.3,-5.9 H 573 v 13 z m 1.1,-21.4 c 12.4,0 20.9,3.2 20.9,13.5 0,6.4 -4.4,10.5 -11.9,12 8.4,1.6 13.4,5.9 13.4,13 0,8.4 -7.3,15 -20.1,15 h -34.7 v -48.4 c -3.3,-1.1 -5.8,-3.3 -5.8,-4.9 v -0.3 h 38.2 z"
   class="st0" />
			<path
   style="fill:#1d4094"
   id="path26"
   d="m 680.2,282.9 c -2.8,-0.9 -4.8,-3.3 -4.8,-4.7 v -0.4 h 13.9 l 29.8,30.7 V 283 c -2.7,-0.9 -4.8,-3.3 -4.8,-4.7 v -0.4 h 18.6 v 0.4 c 0,1.5 -2.1,3.9 -4.8,4.7 v 34.9 c 2.7,0.9 4.8,3.3 4.8,4.7 V 323 H 720 l -30.9,-31.7 v 26.6 c 2.8,0.9 4.8,3.3 4.8,4.7 v 0.4 h -13.7 z"
   class="st0" />
			<path
   style="fill:#1d4094"
   id="path28"
   d="m 773.4,282.1 c -1.3,-0.9 -2.2,-2.8 -2.2,-4 v -0.4 h 18.7 v 0.4 c 0,2.2 -2.9,4.3 -5.1,4.6 l -16.3,13.8 18.1,21.2 c 2.2,0.6 5.5,2.5 5.5,4.7 v 0.4 h -13.7 l -17.1,-20.6 -7.1,5.5 v 10 c 2.7,0.9 4.8,3.3 4.8,4.7 v 0.4 h -14.6 v -40.1 c -2.8,-0.9 -4.8,-3.3 -4.8,-4.7 v -0.4 H 759 v 0.4 c 0,1.5 -2.1,3.9 -4.8,4.7 v 15.6 z"
   class="st0" />
			<path
   style="fill:#1d4094"
   id="path30"
   d="m 644.4,288.5 -7,15.8 c 2.1,-0.3 4.6,-0.3 7.6,-0.3 3.2,0 5.7,0.2 7.7,0.4 l -7.5,-15.9 z m -8.6,34 v 0.4 h -18.9 v -0.4 c 0,-2.2 3.1,-4.4 5.3,-4.7 l 16.5,-35.4 c -1.9,-0.9 -3.8,-2.8 -3.8,-4.2 v -0.4 h 21.6 v 0.4 c 0,1.5 -2.1,3.4 -3.9,4.2 l 17.5,35.4 c 2.2,0.3 5.3,2.5 5.3,4.7 v 0.4 h -20.9 v -0.4 c 0,-2.3 2.4,-4 4.6,-4.6 l -2.7,-5.7 c -2.9,-0.4 -6.3,-0.9 -11.5,-0.9 -5,0 -8.4,0.3 -11.3,0.8 l -2.5,5.6 c 2.6,0.4 4.7,2.5 4.7,4.8"
   class="st0" />
		</g>
		<g
   id="g42">
			<path
   style="fill:#00ae65"
   id="path34"
   d="M 528,71.3 C 528,32.7 496.4,1.1 457.8,1.1 H 264 V 166 c 0,38.6 31.6,70.2 70.2,70.2 H 528 Z"
   class="st1" />
			<path
   style="fill:#ffffff"
   id="path36"
   d="M 458,13.6 H 276.5 v 152.5 c 0,31.6 25.9,57.5 57.5,57.5 H 515.4 V 71.1 C 515.5,39.5 489.6,13.6 458,13.6"
   class="st2" />
			<path
   style="fill:#1d4094"
   id="path38"
   d="M 457.4,22 H 284.9 v 143.6 c 0,27.3 22.4,49.7 49.7,49.7 H 507.1 V 71.7 C 507.1,44.3 484.7,22 457.4,22"
   class="st0" />
			<path
   style="fill:#ffffff"
   id="path40"
   d="M 382.4,192.4 422.1,42.2 412.7,41.9 373,192.5 Z m 80.7,-51.5 c 10.9,-2.1 15.5,-7.6 17,-9.2 3.6,-3.8 6,-11.8 4.1,-18.3 -1.9,-6.5 -5.1,-10.8 -10.4,-14.9 -7.2,-5.5 -15,-5.3 -15,-5.3 l -42.1,-0.1 c 17.8,6 21.5,21.4 21.5,21.4 0,0 6.6,20.8 -20.8,26.3 0,0 -0.4,-0.1 -0.1,0 2.4,0.8 8.9,4.1 14.3,9.6 4.8,4.9 6.4,12.2 6.4,12.2 4.4,21.5 -21.4,26.8 -21.4,26.8 l 41.1,-0.1 c 14.3,0 20.7,-7.9 21.9,-9.2 3.6,-3.8 6.7,-11.1 5.3,-17.5 -1.5,-7 -5.1,-11.2 -8.3,-14 -5,-4.3 -13.5,-7.7 -13.5,-7.7 -0.1,0 0,0 0,0 m -87.4,-9 c 3.9,-4 5.3,-12.6 3.2,-19.6 -2,-7 -5.5,-11.8 -11.2,-16.1 -7.7,-5.9 -15.6,-6.4 -15.6,-6.4 l -45.2,-0.1 c 19.1,6.4 23.5,22.9 23.5,22.9 4.8,23.1 -21.7,27.5 -21.7,27.5 h 49.5 c 9.9,-0.5 16.2,-6.8 17.5,-8.2 m -4.2,-85.8 -0.6,33.6 -64,0.1 V 46 Z"
   class="st2" />
		</g>
	</g>
</g>
<g
   transform="translate(0,-1.1)"
   id="_x33_D_x2F_text">
</g>
</svg>