<?xml version="1.0" encoding="UTF-8" standalone="no"?>
<svg
   xmlns:dc="http://purl.org/dc/elements/1.1/"
   xmlns:cc="http://creativecommons.org/ns#"
   xmlns:rdf="http://www.w3.org/1999/02/22-rdf-syntax-ns#"
   xmlns:svg="http://www.w3.org/2000/svg"
   xmlns="http://www.w3.org/2000/svg"
   xmlns:sodipodi="http://sodipodi.sourceforge.net/DTD/sodipodi-0.dtd"
   xmlns:inkscape="http://www.inkscape.org/namespaces/inkscape"
   viewBox="0 0 576.008 576"
   height="576"
   width="576.008"
   xml:space="preserve"
   id="svg2"
   version="1.1"
   sodipodi:docname="ge.svg"
   inkscape:version="0.92.2 5c3e80d, 2017-08-06"><sodipodi:namedview
     pagecolor="#ffffff"
     bordercolor="#666666"
     borderopacity="1"
     objecttolerance="10"
     gridtolerance="10"
     guidetolerance="10"
     inkscape:pageopacity="0"
     inkscape:pageshadow="2"
     inkscape:window-width="1114"
     inkscape:window-height="772"
     id="namedview8"
     showgrid="false"
     inkscape:zoom="0.27314815"
     inkscape:cx="288.004"
     inkscape:cy="288"
     inkscape:window-x="0"
     inkscape:window-y="0"
     inkscape:window-maximized="0"
     inkscape:current-layer="svg2" /><metadata
     id="metadata8"><rdf:RDF><cc:Work
         rdf:about=""><dc:format>image/svg+xml</dc:format><dc:type
           rdf:resource="http://purl.org/dc/dcmitype/StillImage" /></cc:Work></rdf:RDF></metadata><defs
     id="defs6" /><g
     transform="matrix(1.3333333,0,0,-1.3333333,-143.996,719.99998)"
     id="g10"><g
       transform="scale(0.1)"
       id="g12"><path
         id="path14"
         style="fill:#1763af;fill-opacity:1;fill-rule:nonzero;stroke:none"
         d="m 3240.09,1080 c -1190.82,0 -2160.12,963.28 -2160.12,2160.04 0,1190.66 969.3,2159.96 2160.12,2159.96 1190.39,0 2159.94,-969.3 2159.94,-2159.96 C 5400.03,2043.28 4430.48,1080 3240.09,1080 Z m 0,4218.36 c -1136.88,0 -2058.48,-921.56 -2058.48,-2058.32 0,-1136.99 921.6,-2058.28 2058.48,-2058.28 1136.78,0 2058.04,921.29 2058.04,2058.28 0,1130.84 -921.26,2058.32 -2058.04,2058.32 z M 5070.44,2624.3 c -1,-1.88 -4.45,-4.69 -11.07,-2.35 -5.04,1.88 -6.68,4.57 -6.51,7.74 0.35,3.51 72.42,216.25 71.9,460.66 -0.82,263.34 -107.82,424.85 -245.28,424.85 -83.85,0 -143.61,-59.93 -143.61,-149.56 0,-161.58 197.46,-173.53 197.46,-526.66 0,-143.55 -29.88,-281.01 -77.81,-430.78 -221.43,-747.89 -927.54,-1094.76 -1615.43,-1094.76 -317.23,0 -542.58,65.08 -609.73,95.19 -2.75,1.37 -4.98,6.76 -2.87,11.92 1.54,4.22 6.23,7.26 8.77,6.09 27.3,-10.78 220.74,-71.44 460.12,-71.44 263.3,0 418.92,107.53 418.92,239.49 0,83.55 -65.8,149.41 -149.7,149.41 -161.53,0 -173.56,-203.32 -520.55,-203.32 -149.59,0 -281.17,29.77 -436.8,77.7 -741.95,227.34 -1095.54,927.46 -1094.92,1621.56 0.27,337.93 94.92,607.11 96.52,609.73 1.1,1.79 5.45,3.67 10.67,1.79 5.31,-1.79 6.79,-6.36 6.29,-7.73 -8.75,-28.01 -71.57,-220.98 -71.57,-460.2 0,-263.4 107.64,-418.86 245.22,-418.86 77.83,0 143.65,59.84 143.65,143.51 0,161.6 -197.46,179.57 -197.46,526.56 0,149.73 29.88,281.29 77.83,436.86 227.33,741.91 927.42,1089.67 1615.61,1094.94 319.74,2.46 599.7,-93.22 610.19,-101.64 1.82,-1.54 3.93,-5.88 1.82,-10.74 -2.11,-5.57 -5.92,-6.29 -7.85,-5.98 -3.34,0.41 -185.28,76.49 -460.78,76.49 -257.13,0.11 -418.66,-107.62 -418.66,-245.32 0,-77.73 59.77,-143.53 149.5,-143.53 161.64,0 173.65,197.46 520.52,197.46 149.65,0 281.2,-29.94 436.76,-77.83 748.13,-227.39 1088.62,-933.48 1095,-1615.51 3.28,-349.49 -95.15,-613.95 -96.15,-615.74 z m -1028.73,513.9 c -203.26,0 -359,-149.65 -359,-329.1 0,-149.65 89.7,-269.18 209.47,-269.18 41.95,0 83.61,23.91 83.61,77.81 0,77.7 -103.07,96.68 -95.04,213.05 5.04,76.76 77.35,128.01 149.01,128.01 143.61,0 210.76,-139.14 210.76,-282.77 -6.04,-221.41 -168.93,-375.51 -360.3,-375.51 -251.36,0 -412.73,239.41 -412.73,496.76 0,382.89 251.19,532.5 382.79,568.37 1.35,0.12 344.24,-61.15 333.4,90 -4.63,66.31 -103.53,91.78 -175.19,94.71 -79.52,3.15 -159.32,-25.47 -159.32,-25.47 -41.84,21.12 -70.72,62.23 -88.54,109.96 245.28,185.59 418.77,365.04 418.77,568.46 0,107.7 -71.83,203.5 -209.41,203.5 -245.27,0 -430.84,-311.14 -430.84,-592.35 0,-47.85 0,-95.78 12.01,-137.67 -155.56,-113.69 -271.23,-184.24 -480.7,-309.87 0,26.27 5.49,93.64 23.07,181.43 71.79,77.75 170.35,194.2 170.35,283.96 0,41.88 -23.79,77.82 -71.84,77.82 -119.59,0 -209.35,-179.44 -233.28,-305.16 -53.89,-65.82 -161.52,-149.69 -251.29,-149.69 -71.8,0 -95.7,65.94 -101.8,89.81 227.46,77.89 508.64,388.98 508.64,670.19 0,59.85 -23.93,191.53 -203.36,191.53 -269.3,0 -496.64,-400.9 -496.64,-712.07 -95.82,0 -131.59,101.75 -131.59,179.45 0,77.85 29.89,155.66 29.89,179.53 0,23.99 -12.07,53.87 -47.93,53.87 -89.77,0 -143.65,-119.69 -143.65,-257.27 6.07,-191.46 131.69,-311.17 299.21,-323.08 23.95,-113.71 125.71,-221.35 251.29,-221.35 77.89,0 173.52,23.89 239.42,83.69 -6.08,-41.95 -11.96,-77.77 -18.03,-113.69 -263.26,-137.68 -454.71,-233.42 -628.24,-388.81 -137.58,-125.78 -215.41,-293.24 -215.41,-424.96 0,-179.53 113.69,-346.88 347.03,-346.88 275.23,0 484.69,221.25 586.39,526.53 47.94,143.55 67.09,352.54 79,544.1 275.31,155.47 405.8,245.59 549.18,347.36 17.99,-29.88 36.15,-53.9 59.88,-71.83 -125.62,-65.88 -424.74,-251.35 -424.74,-688.03 0,-311.25 209.47,-658.13 622.2,-658.13 341.08,0 574.51,280.94 574.51,550.32 0,245.31 -137.69,472.65 -401.01,472.65 z M 2396.3,2300.51 c -89.69,-4.1 -149.43,53.32 -149.43,149.06 0,257.23 356.62,502.77 625.89,634.57 -47.81,-359.06 -169,-769.57 -476.46,-783.63 z m 197.42,1412.15 c 0,197.46 194.92,572.89 314.14,533.24 140.59,-46.88 -116.64,-425.47 -314.14,-533.24 z m 1131,89.72 c 0,245.39 165.99,483.95 256.87,438.6 103.24,-51.68 -77.34,-282.97 -256.87,-438.6"
         inkscape:connector-curvature="0" /></g></g></svg>