<svg xmlns="http://www.w3.org/2000/svg" xmlns:xlink="http://www.w3.org/1999/xlink" x="0" y="0" width="621" height="41" viewBox="0 0 621 41" version="1.1" style="display: block;margin-left: auto;margin-right: auto;">
<defs>

<style type="text/css"><![CDATA[

.g0_1{
fill: #808285;
}

]]></style>

</defs>
<path d="M0,0 L0,41 L621,41 L621,0 Z " fill="#FFFFFF" stroke="none"/>
<path d="M11.4,1H29.3V2.3h-1c-1.9,0,-3.1,.1,-3.7,.4c-.6,.4,-1,.9,-1.2,1.8c-.2,.8,-.3,2.9,-.3,6.1V23.8c0,3.2,-.1,5.7,-.4,7.4c-.2,1.7,-.9,3.4,-2.1,5c-1.2,1.6,-2.7,2.9,-4.7,3.7c-2,.9,-4.2,1.4,-6.8,1.4c-2.9,0,-5.2,-.6,-6.7,-1.7C.8,38.6,0,37.3,0,35.8c0,-.9,.3,-1.7,.8,-2.3c.6,-.6,1.3,-.9,2.1,-.9c.9,0,1.6,.3,2.1,.8c.6,.6,.9,1.3,.9,2.1c0,.4,-.1,.9,-.4,1.4c-.2,.5,-.3,.8,-.3,1c0,.6,.4,1.1,1.1,1.5c.7,.3,1.6,.5,2.7,.5c2.1,0,3.9,-.7,5.4,-2.1c1.5,-1.4,2.4,-3,2.7,-4.9c.3,-1.8,.4,-4.9,.4,-9.2V10.6c0,-3.1,-.1,-5.1,-.3,-6C17.1,3.7,16.7,3.1,16.1,2.8c-.6,-.4,-1.8,-.5,-3.8,-.5h-.9V1Z" class="g0_1"/>
<path d="M45.1,20h2.7c2.2,0,4,-.3,5.4,-.7c1.4,-.5,2.5,-1.4,3.4,-2.8C57.5,15,58,13.3,58,11.2C58,8,57.2,5.7,55.6,4.2C54.1,2.7,51.5,1.9,48,1.9C46.7,1.9,45.7,2,45.1,2V20Zm0,1.3v8.2c0,3,0,5,.2,6c.1,.9,.5,1.6,1.1,2.1c.7,.4,1.8,.7,3.6,.7h1.3v1.2H33.5V38.3h1c1.7,0,2.8,-.3,3.5,-.7c.6,-.4,1,-1,1.2,-1.9c.2,-.9,.2,-3,.2,-6.2V10.6c0,-3.1,0,-5.1,-.2,-6C39,3.7,38.6,3.1,38,2.8c-.5,-.4,-1.8,-.5,-3.8,-.5h-.7V1L38.3,.8c3.9,-.2,7,-.3,9.1,-.3c4,0,7.1,.4,9.3,1c2.1,.6,3.9,1.7,5.3,3.3c1.4,1.6,2,3.6,2,6c0,2.2,-.4,4,-1.4,5.6c-.9,1.6,-2.3,2.9,-4,3.7c-1.8,.8,-4.9,1.2,-9.3,1.2H45.1Z" class="g0_1"/>
<path d="M96.2,32.9L110.3,1h11.9V2.3h-1.4c-1.9,0,-3.2,.1,-3.8,.4c-.6,.4,-1,.9,-1.2,1.8c-.2,.8,-.3,2.9,-.3,6.1V29.5c0,3.1,.1,5,.3,6c.1,.9,.5,1.6,1.1,2.1c.6,.4,1.8,.7,3.6,.7h1.7v1.2H103.6V38.3H105c1.6,0,2.8,-.3,3.4,-.7c.7,-.4,1.1,-1,1.3,-1.9c.1,-.9,.2,-3,.2,-6.2V5L94.7,39.5H93.3L78,5V27.6c0,3.1,.1,5.2,.3,6.3c.2,1.1,.8,2.1,1.7,2.9c1,.9,2.4,1.3,4.2,1.5v1.2H70.3V38.3c1.7,-.1,3,-.6,4.1,-1.4c1,-.8,1.6,-1.8,1.9,-3c.2,-1.1,.3,-3.3,.3,-6.5V10.6c0,-3.1,-.1,-5.1,-.3,-6C76.2,3.7,75.8,3.1,75.2,2.8c-.6,-.4,-1.9,-.5,-3.8,-.5H70.3V1H82.1L96.2,32.9Z" class="g0_1"/>
<path d="M129.4,24.6c0,4.8,1,8.4,2.9,10.8c1.9,2.3,4.7,3.5,8.5,3.5c3.3,0,5.9,-1.2,7.9,-3.5c1.9,-2.4,2.9,-6,2.9,-10.7c0,-4.7,-1,-8.2,-2.9,-10.6c-1.9,-2.5,-4.6,-3.7,-8.3,-3.7c-3.5,0,-6.2,1.2,-8.1,3.6c-1.9,2.4,-2.9,5.9,-2.9,10.6Zm-5,-.1c0,-4.6,1.5,-8.3,4.6,-11.1c3,-2.7,6.8,-4.1,11.4,-4.1c4.6,0,8.5,1.4,11.6,4.1c3.1,2.7,4.6,6.5,4.6,11.2c0,4.6,-1.5,8.3,-4.4,11.2c-3,2.8,-6.9,4.2,-11.7,4.2c-4.7,0,-8.6,-1.4,-11.6,-4.2c-3,-2.9,-4.5,-6.6,-4.5,-11.3Z" class="g0_1"/>
<path d="M584.8,24.6c0,4.8,.9,8.4,2.8,10.8c1.9,2.3,4.8,3.5,8.5,3.5c3.4,0,6,-1.2,7.9,-3.5c2,-2.4,2.9,-6,2.9,-10.7c0,-4.7,-.9,-8.2,-2.8,-10.6c-1.9,-2.5,-4.7,-3.7,-8.3,-3.7c-3.6,0,-6.3,1.2,-8.2,3.6c-1.9,2.4,-2.8,5.9,-2.8,10.6Zm-5.1,-.1c0,-4.6,1.6,-8.3,4.6,-11.1c3.1,-2.7,6.9,-4.1,11.5,-4.1c4.6,0,8.4,1.4,11.5,4.1c3.1,2.7,4.7,6.5,4.7,11.2c0,4.6,-1.5,8.3,-4.5,11.2c-2.9,2.8,-6.8,4.2,-11.7,4.2c-4.7,0,-8.5,-1.4,-11.5,-4.2c-3.1,-2.9,-4.6,-6.6,-4.6,-11.3Z" class="g0_1"/>
<path d="M169.5,24.2c1.1,0,2.2,-.1,3.3,-.1c1.2,-.1,2.2,-.3,3,-.5c.9,-.3,1.6,-.7,2.1,-1.2c.5,-.5,.9,-1.1,1.2,-2c.3,-.8,.5,-1.8,.5,-3c0,-2.1,-.5,-3.7,-1.6,-5c-1,-1.2,-3.2,-1.9,-6.7,-1.9c-.5,0,-1.1,.1,-1.8,.1V24.2Zm22.3,15.3h-8c-1.4,-1,-3.5,-3.6,-6.4,-7.8c-1,-1.3,-1.9,-2.6,-2.9,-3.8c-1,-1.2,-1.7,-2,-2.1,-2.2c-.4,-.3,-.9,-.4,-1.7,-.4h-1.2v6.5c0,2.3,0,3.8,.1,4.6c.1,.7,.4,1.2,.9,1.6c.5,.3,1.4,.5,2.7,.5h1.5v1H160.5v-1h.9c1.3,0,2.2,-.2,2.7,-.5c.5,-.3,.8,-.8,.9,-1.5c.1,-.7,.2,-2.3,.2,-4.7V17.2c0,-2.3,-.1,-3.9,-.2,-4.6c-.1,-.6,-.4,-1.1,-.9,-1.4c-.4,-.2,-1.4,-.4,-3,-.4h-.5v-1l4.3,-.2c2.8,-.1,5,-.2,6.7,-.2c2.8,0,5.1,.3,6.9,.8c1.7,.6,3.2,1.4,4.3,2.6c1,1.2,1.6,2.6,1.6,4.3c0,1.9,-.7,3.6,-2.1,5c-1.5,1.3,-3.5,2.2,-6.3,2.5c1.3,.6,3.2,2.8,6,6.5c2.2,3,4,5,5.3,5.9c1.2,.9,2.7,1.4,4.5,1.5v1Z" class="g0_1"/>
<path d="M212.3,26.8h12.8v1c-1.4,0,-2.4,.2,-2.9,.5c-.5,.3,-.8,.7,-1,1.4c-.1,.7,-.2,2.3,-.2,4.8v3.2c-.3,-.1,-.7,-.1,-.9,-.1c-1.2,0,-2.6,.4,-4.4,1c-2.5,1,-4.8,1.4,-6.9,1.4c-4.3,0,-7.8,-1.4,-10.6,-4.2C195.4,33.1,194,29.5,194,25.2c0,-4.2,1.3,-7.9,4,-11.1c2.7,-3.2,6.3,-4.8,11,-4.8c3.9,0,7.2,1.4,9.8,4.3c.5,-1,.8,-2.1,1,-3.3h1v9.9h-1c-.5,-3,-1.6,-5.4,-3.5,-7.2c-1.9,-1.7,-4.2,-2.6,-6.9,-2.6c-2.8,0,-5.2,1,-7.3,3.1c-2,2,-3.1,5.7,-3.1,11c0,5.2,1,9,3,11.2c2,2.1,4.5,3.2,7.4,3.2c1.5,0,2.9,-.3,4.1,-.9c1.3,-.6,2.1,-1.4,2.6,-2.2c.4,-.9,.6,-2.1,.6,-3.4c0,-1.6,-.1,-2.7,-.3,-3.2c-.2,-.5,-.5,-.9,-1,-1.1c-.4,-.2,-1.2,-.3,-2.4,-.3h-.7v-1Z" class="g0_1"/>
<path d="M246.2,27.4L241,14.9l-5.2,12.5h10.4Zm.4,1.1H235.4l-.8,1.9c-1.1,2.8,-1.7,4.5,-1.7,5.4c0,.9,.3,1.5,.9,2c.6,.5,1.4,.7,2.4,.7v1h-9v-1c1.4,-.2,2.3,-.7,3,-1.4c.6,-.7,1.4,-2.3,2.3,-4.6c.1,-.2,.5,-1,1.1,-2.5L242.2,9.4h.9L253,33l1.3,3.1c.4,.7,.8,1.2,1.3,1.6c.5,.4,1.3,.7,2.3,.8v1H246.3v-1c1.4,0,2.4,-.1,2.9,-.3c.5,-.2,.7,-.7,.7,-1.3c0,-.3,-.3,-1.3,-1,-2.9l-2.3,-5.5Z" class="g0_1"/>
<path d="M288.3,40.2l-21,-27.8V32.9c0,1.8,0,2.9,.2,3.4c.2,.5,.6,1,1.4,1.5c.8,.5,2,.7,3.6,.7v1H261.4v-1c1.4,-.1,2.5,-.4,3.3,-.8c.7,-.4,1.1,-.9,1.3,-1.3c.1,-.5,.2,-1.7,.2,-3.5V17.2c0,-2.3,-.1,-3.8,-.3,-4.6c-.3,-.7,-.6,-1.2,-1.1,-1.4c-.4,-.3,-1.5,-.4,-3.1,-.4v-1h8.9L288.2,33V15.3c0,-1.3,-.2,-2.2,-.5,-2.8c-.2,-.5,-.8,-.9,-1.6,-1.2c-.8,-.3,-1.8,-.5,-3,-.5v-1h10.7v1c-1.2,.1,-2.2,.4,-2.9,.8c-.7,.3,-1.2,.8,-1.4,1.3c-.2,.6,-.3,1.5,-.3,2.7V40.2h-.9Z" class="g0_1"/>
<path d="M344.4,25.2h1.3V38.7h-1.3c-.4,-1.5,-1,-2.9,-1.9,-4c-3.4,3.8,-7.7,5.7,-12.9,5.7C324,40.4,319.5,38.6,316,35.1c-3.5,-3.5,-5.3,-8.2,-5.3,-14c0,-3.8,.8,-7.4,2.4,-10.8C314.8,7,317,4.5,319.9,2.9c3,-1.7,6.1,-2.5,9.6,-2.5c2.9,0,5.5,.6,7.8,1.8c2.3,1.2,4.1,2.5,5.2,3.9c.8,-1.6,1.4,-3.3,1.5,-5h1.3l.4,14.6h-1.3c-.9,-5.2,-2.6,-8.8,-5.2,-10.8C336.6,2.8,333.6,1.8,330.3,1.8c-4,0,-7.2,1.6,-9.6,4.9c-2.3,3.3,-3.5,8,-3.5,14.1c0,5.8,1.3,10.2,3.9,13.3c2.6,3.1,5.8,4.6,9.6,4.6c2.1,0,4.2,-.5,6.3,-1.5c2.2,-1,3.9,-2.7,5.1,-5.1c1.3,-2.4,2,-4.7,2.3,-6.9Z" class="g0_1"/>
<path d="M376.9,24.5H361.5v7.2c0,2.3,0,3.8,.1,4.6c.2,.7,.5,1.2,.9,1.6c.5,.3,1.4,.5,2.8,.5h.7v1H352.6v-1h.8c1.3,0,2.1,-.2,2.6,-.5c.5,-.3,.8,-.8,1,-1.5c.1,-.6,.2,-2.2,.2,-4.7V17.1c0,-2.3,-.1,-3.8,-.2,-4.5c-.2,-.7,-.5,-1.2,-.9,-1.4c-.4,-.3,-1.4,-.4,-2.9,-.4h-.6v-1H366v1h-.5c-1.5,0,-2.4,.1,-2.9,.3c-.4,.3,-.8,.7,-.9,1.4c-.2,.6,-.2,2.2,-.2,4.6V23h15.4V17.1c0,-2.3,0,-3.8,-.2,-4.5c-.1,-.7,-.4,-1.2,-.8,-1.4c-.5,-.3,-1.4,-.4,-2.9,-.4h-.8v-1h13.4v1h-.4c-1.5,0,-2.4,.1,-2.9,.3c-.4,.3,-.7,.7,-.9,1.4c-.1,.6,-.2,2.2,-.2,4.6V31.7c0,2.3,0,3.8,.2,4.6c.1,.7,.4,1.2,.8,1.6c.5,.3,1.4,.5,2.7,.5h.7v1H372.2v-1h1c1.2,0,2.1,-.2,2.6,-.5c.5,-.3,.8,-.8,.9,-1.5c.2,-.7,.2,-2.2,.2,-4.7V24.5Z" class="g0_1"/>
<path d="M407.5,27.4L402.3,14.8l-5.1,12.6h10.3Zm.5,1.1H396.7l-.8,1.9c-1.1,2.7,-1.7,4.5,-1.7,5.3c0,.9,.3,1.6,.9,2c.6,.5,1.4,.7,2.4,.7v1h-8.9v-1c1.3,-.2,2.3,-.7,2.9,-1.4c.7,-.7,1.4,-2.2,2.3,-4.6c.1,-.2,.5,-1,1.1,-2.5L403.6,9.4h.8l9.9,23.5l1.4,3.1c.3,.7,.7,1.2,1.2,1.7c.5,.4,1.3,.6,2.3,.7v1H407.6v-1c1.4,0,2.4,-.1,2.9,-.3c.5,-.2,.7,-.6,.7,-1.3c0,-.3,-.3,-1.2,-1,-2.8L408,28.5Z" class="g0_1"/>
<path d="M423,39.1V29.5h1.1c1.2,6.3,4.2,9.4,8.8,9.4c2.1,0,3.7,-.6,4.9,-1.8c1.1,-1.2,1.7,-2.5,1.7,-4c0,-1.5,-.5,-2.7,-1.5,-3.7c-1,-1,-2.9,-2.1,-5.5,-3.2c-2.4,-1,-4.2,-1.9,-5.4,-2.7c-1.2,-.8,-2.2,-1.8,-2.8,-3c-.7,-1.2,-1,-2.5,-1,-3.9c0,-2.1,.7,-3.9,2.2,-5.3c1.4,-1.4,3.3,-2.1,5.6,-2.1c1.2,0,2.4,.2,3.5,.6c1.1,.4,2.3,1.3,3.4,2.5c.7,-.8,1.1,-1.6,1.2,-2.5h.9v7.7h-.9c-.6,-2.2,-1.6,-4,-3,-5.3c-1.4,-1.3,-3,-1.9,-4.9,-1.9c-1.8,0,-3.1,.5,-3.9,1.4c-.9,1,-1.3,2,-1.3,3.1c0,1.4,.6,2.5,1.6,3.5c1,.9,2.9,2,5.5,3.2c2.6,1.1,4.5,2.1,5.6,2.8c1.2,.7,2.1,1.6,2.8,2.8c.7,1.3,1.1,2.7,1.1,4.3c0,2.5,-.9,4.6,-2.6,6.2c-1.7,1.6,-3.9,2.4,-6.8,2.4c-3.2,0,-5.9,-1.3,-8.1,-3.8c-.5,.7,-.9,1.7,-1.1,2.9H423Z" class="g0_1"/>
<path d="M471.8,30.2h1l-.6,9.2H447.8v-1h.6c1.4,0,2.4,-.2,2.8,-.6c.4,-.4,.7,-.9,.8,-1.5c.1,-.6,.2,-2.1,.2,-4.6V17.1c0,-2.2,-.1,-3.7,-.2,-4.4c-.1,-.7,-.4,-1.2,-.9,-1.5c-.4,-.3,-1.4,-.4,-2.8,-.4v-1h21.1l.7,7.3h-1c-.5,-2,-1,-3.5,-1.7,-4.4c-.7,-.8,-1.5,-1.4,-2.4,-1.6c-.9,-.2,-2.4,-.3,-4.5,-.3h-4V23.2h3.1c1.4,0,2.4,-.1,3,-.4c.6,-.2,.9,-.6,1.1,-1.1c.2,-.5,.3,-1.5,.3,-2.9h1V28.9h-1c0,-1.7,-.1,-2.8,-.4,-3.4c-.3,-.5,-.7,-.9,-1.2,-1.1c-.6,-.1,-1.5,-.2,-2.7,-.2h-3.2v7c0,3.5,.2,5.6,.6,6.2c.5,.6,1.7,.9,3.7,.9H463c1.5,0,2.8,-.2,3.8,-.5c1,-.4,2,-1.2,2.9,-2.4c.9,-1.3,1.6,-3,2.1,-5.2Z" class="g0_1"/>
<path d="M501.1,14.4c4,-2.3,5.9,-4.8,5.9,-7.5C507,5.3,506.6,4,505.7,3.1c-.9,-1,-2.1,-1.5,-3.5,-1.5c-1.4,0,-2.6,.5,-3.5,1.4c-.8,.9,-1.2,2.1,-1.2,3.5c0,2,1.2,4.6,3.6,7.9Zm-3,3.6c-2.1,1.3,-3.7,2.8,-4.8,4.5c-1.1,1.7,-1.7,3.3,-1.7,4.9c0,2.4,1,4.7,2.9,6.9c2,2.2,4.2,3.3,6.7,3.3c2.8,0,5.4,-1.4,7.7,-4.1C504.7,27.1,501.1,22,498.1,18Zm12.8,-2.8h12.8v1.4c-1.6,.4,-3,1.2,-4.2,2.3c-1.2,1.1,-2.5,3.2,-3.7,6.3c-1.1,2.5,-2.1,4.3,-3,5.5c2.2,3.1,3.8,5,5,5.8c1.2,.8,2.5,1.2,3.9,1.2c1.9,0,3.3,-.9,4.3,-2.6h1.4c-.4,1.6,-1.3,2.9,-2.7,3.9c-1.3,1,-2.9,1.5,-4.7,1.5c-3.9,0,-7.3,-1.9,-10.2,-5.8c-3.5,3.9,-7.2,5.8,-11.1,5.8c-1.9,0,-3.7,-.5,-5.5,-1.4c-1.7,-.9,-3.1,-2.2,-4.2,-3.9c-1.1,-1.6,-1.6,-3.5,-1.6,-5.7c0,-2.5,.6,-4.6,2,-6.3c1.4,-1.7,4,-3.8,7.8,-6.4C494.9,13.6,493.7,10.7,493.7,8c0,-2,.8,-3.9,2.4,-5.5c1.6,-1.6,3.6,-2.4,6,-2.4c2.1,0,4.1,.6,5.8,1.8c1.7,1.2,2.6,2.8,2.6,4.8c0,3,-2.9,6,-8.6,8.9c3.6,4.7,6.9,9.3,10,13.8c1.2,-1.6,2.1,-3.2,2.7,-4.9c.7,-1.7,1,-3,1,-4c0,-2.2,-1.6,-3.6,-4.7,-3.9V15.2Z" class="g0_1"/>
<path d="M571.2,25.1h1.3V38.6h-1.3c-.4,-1.5,-1,-2.9,-1.9,-4.1c-3.4,3.8,-7.7,5.7,-12.9,5.7c-5.6,0,-10.1,-1.7,-13.6,-5.2c-3.5,-3.6,-5.3,-8.2,-5.3,-14c0,-3.8,.8,-7.4,2.5,-10.8c1.6,-3.3,3.8,-5.8,6.8,-7.5c2.8,-1.6,6,-2.4,9.5,-2.4c2.9,0,5.5,.6,7.8,1.8c2.3,1.1,4.1,2.4,5.2,3.9c.9,-1.6,1.4,-3.3,1.5,-5h1.3l.4,14.6h-1.3C570.3,10.4,568.6,6.8,566,4.7c-2.6,-2,-5.6,-3,-8.9,-3c-4,0,-7.2,1.6,-9.6,4.9c-2.3,3.3,-3.5,8,-3.5,14.1c0,5.8,1.3,10.2,3.9,13.3c2.6,3.1,5.8,4.6,9.6,4.6c2.1,0,4.2,-.5,6.3,-1.5c2.2,-1,3.9,-2.7,5.1,-5.1c1.3,-2.4,2.1,-4.7,2.3,-6.9Z" class="g0_1"/>
<path d="M614.5,37c0,-.9,.3,-1.6,.9,-2.3c.7,-.6,1.4,-.9,2.3,-.9c.9,0,1.7,.3,2.3,.9c.7,.7,1,1.4,1,2.3c0,.9,-.3,1.7,-1,2.4c-.6,.6,-1.4,.9,-2.3,.9c-.9,0,-1.7,-.3,-2.3,-1c-.6,-.6,-.9,-1.4,-.9,-2.3Z" class="g0_1"/>

</svg>
