<svg id="Layer_1" xmlns="http://www.w3.org/2000/svg" xmlns:xlink="http://www.w3.org/1999/xlink" viewBox="0 0 769 143"><style>.st1{fill:#fff}.st2{clip-path:url(#SVGID_2_)}</style><path d="M693.8 121c-33.6 0-60.9-22.4-60.9-50s27.3-50 60.9-50c33.6 0 60.9 22.4 60.9 50s-27.3 50-60.9 50" fill="#0768b1"/><path class="st1" d="M693.8 21.9c33.1 0 59.9 22 59.9 49.1s-26.8 49.1-59.9 49.1c-33.1 0-59.9-22-59.9-49.1s26.8-49.1 59.9-49.1m0-1.9c-16.4 0-31.9 5.3-43.6 14.8-5.7 4.7-10.2 10.1-13.3 16.2-3.3 6.3-4.9 13-4.9 20 0 6.9 1.7 13.7 4.9 20 3.1 6.1 7.6 11.5 13.3 16.2 11.7 9.5 27.1 14.8 43.6 14.8 16.4 0 31.9-5.3 43.6-14.8 5.7-4.7 10.2-10.1 13.3-16.2 3.3-6.3 4.9-13 4.9-20 0-6.9-1.7-13.7-4.9-20-3.1-6.1-7.6-11.5-13.3-16.2-11.7-9.5-27.1-14.8-43.6-14.8z"/><path class="st1" d="M693.8 26.9c30.3 0 54.9 19.7 54.9 44s-24.6 44-54.9 44c-30.3 0-54.9-19.7-54.9-44s24.6-44 54.9-44m0-1.9c-15.1 0-29.3 4.7-40 13.3-5.2 4.2-9.4 9.1-12.3 14.6-3 5.7-4.5 11.8-4.5 18 0 6.3 1.5 12.3 4.5 18 2.9 5.5 7 10.4 12.3 14.6 10.7 8.6 24.9 13.3 40 13.3 15.1 0 29.3-4.7 40-13.3 5.2-4.2 9.4-9.1 12.3-14.6 3-5.7 4.5-11.8 4.5-18 0-6.3-1.5-12.3-4.5-18-2.9-5.5-7-10.4-12.3-14.6-10.7-8.6-24.9-13.3-40-13.3z"/><path class="st1" d="M677.7 63s-.7-.3-1.9-.3c-2.2 0-3.6 1.4-3.6 1.4l-.5-1.4H667.5v22.1h5.2V71.4c0-1.2.6-1.8 1-2.2 1.4-1.3 4-1.3 4-1.3V63M742.4 63s-.7-.3-1.9-.3c-2.2 0-3.6 1.4-3.6 1.4l-.5-1.4H732.2v22.1h5.2V71.4c0-1.2.6-1.8 1-2.2 1.4-1.3 4-1.3 4-1.3V63M717.3 87c.3.3.5.7.5 1.2s-.2.9-.5 1.2c-.3.3-.7.5-1.2.5s-.9-.2-1.2-.5c-.3-.3-.5-.8-.5-1.2 0-.5.2-.9.5-1.2.3-.3.7-.5 1.2-.5s.9.2 1.2.5m.3-.2c-.4-.4-.9-.6-1.5-.6-.5 0-1 .2-1.4.6-.4.4-.7.9-.7 1.5s.2 1.1.6 1.5c.4.4.9.6 1.5.6s1.1-.2 1.5-.6c.4-.4.6-.9.6-1.5s-.2-1.1-.6-1.5zm-1.2 1.3c-.1.1-.2.1-.3.1h-.2v-.7h.4c.1 0 .2.1.2.3 0 .2-.1.2-.1.3zm-.6.5h.4c.1 0 .1.1.2.2v.6h.6v-.1-.1-.2c0-.2-.1-.4-.2-.5-.1-.1-.2-.1-.3-.1.2 0 .3-.1.4-.2.1-.1.2-.2.2-.4 0-.3-.1-.4-.3-.6-.1-.1-.3-.1-.5-.1h-1.1v2.3h.6v-.8zM694.6 73.8c0-6.1-2.9-11.1-8.5-11.1-5.5 0-8.5 5-8.5 11.1s2.6 11.1 8.5 11.1c5.8-.1 8.5-5 8.5-11.1m-12 0c0-4 1-6.8 3.5-6.8s3.5 2.9 3.5 6.8c0 4-1 6.8-3.5 6.8s-3.5-2.9-3.5-6.8zM725.9 75.9c-.3 2.8-1.3 4.6-3.4 4.6-2.4 0-3.4-2.8-3.5-6.6h11.9c.1-2-.3-3.7-.3-3.7-.9-4.4-3.7-7.6-8.2-7.6-5.5 0-8.5 5-8.5 11.1s2.6 11.1 8.5 11.1c5.1 0 7.8-3.8 8.4-8.9h-4.9m-3.7-9c1.7 0 2.7 1.3 3.1 3.4H719c.5-2.1 1.5-3.4 3.2-3.4z"/><path class="st1" d="M712.8 85.5V62.6h-5.5v1.2c-.7-.7-2-1.1-3-1.2-5.5-.1-8.5 4.9-8.5 11.1 0 6.2 2.6 11.1 8.6 11.1 1.1 0 2.2-.5 3.1-.8.3 4.3.4 18.6-9.1 18.9-10.3.2-9.2-14.7-9.2-15.1h-5.6s-.7 18.8 14.2 18.8c16.2 0 15-19.4 15-21.1m-8.5-4.9c-2.5 0-3.5-2.9-3.5-6.9s1-6.9 3.5-6.9 3.5 2.9 3.5 6.9-.9 6.9-3.5 6.9zM675 39.5c-7.2 0-11.3 4.1-13.3 8.8 0 .1-.1.2-.1.3v.1c-1 2.5-1.1 4.6-1.1 4.9.3 11.9-5.4 12.7-5.4 12.7-.1-1 0-13.9 0-13.9h-5.5v32.5h5.5V71.3c0-.6 4.9 0 5.2 6.2v7.4h5.8c-.1-.9 1.2-15.4-6.1-15.5-1.2 0 6-1.7 5.8-12.4 0-2.4.2-4.5.7-6.4 1.2-3.8 3.4-7.3 7.8-7.3 10.1-.1 8.9 16.3 9 16.5h5.6c.2-.1 1.2-20.3-13.9-20.3"/><g><g id="Customer__x7C__Quality__x7C__Innovation_1_"><g id="Customer_1_"><path d="M41.5 102.4c-.9 1.3-2 2.2-3.3 2.8-1.2.6-2.6.8-4 .8-1.5 0-2.9-.3-4.1-.8-1.3-.5-2.3-1.2-3.2-2.2-.9-.9-1.6-2-2.1-3.3-.5-1.3-.8-2.7-.8-4.2s.2-2.9.8-4.2c.5-1.3 1.2-2.4 2.1-3.3.9-.9 2-1.6 3.2-2.2 1.3-.5 2.6-.8 4.1-.8 1.3 0 2.6.2 3.8.7 1.2.5 2.2 1.3 3.1 2.4l-1.5 1.3c-.6-.9-1.4-1.6-2.4-2-1-.4-1.9-.6-2.9-.6-1.3 0-2.4.2-3.5.7-1 .4-1.9 1.1-2.6 1.8-.7.8-1.3 1.7-1.7 2.8-.4 1.1-.6 2.2-.6 3.4 0 1.2.2 2.4.6 3.4.4 1.1 1 2 1.7 2.8.7.8 1.6 1.4 2.6 1.8 1 .4 2.2.7 3.5.7.5 0 1-.1 1.6-.2.5-.1 1.1-.3 1.6-.6l1.5-.9c.5-.3.9-.8 1.2-1.4l1.3 1.3zM61.8 97.9c0 1.1-.1 2.1-.4 3-.2 1-.6 1.8-1.2 2.6-.6.7-1.3 1.3-2.2 1.8-.9.4-2.1.7-3.4.7-1.3 0-2.5-.2-3.4-.7-.9-.4-1.7-1-2.2-1.8-.6-.7-1-1.6-1.2-2.6-.2-1-.4-2-.4-3V85.7h1.8v11.7c0 .7.1 1.5.2 2.3.1.8.4 1.5.8 2.2.4.7.9 1.3 1.6 1.7.7.4 1.6.7 2.8.7 1.2 0 2.1-.2 2.8-.7.7-.4 1.2-1 1.6-1.7.4-.7.6-1.4.8-2.2.1-.8.2-1.6.2-2.3V85.7h1.8v12.2zM70.1 101.8c.5.8 1.1 1.5 1.9 1.9.8.4 1.7.6 2.6.6.6 0 1.2-.1 1.7-.3.5-.2 1-.4 1.4-.8.4-.3.7-.7 1-1.2.2-.5.3-1 .3-1.6 0-.7-.1-1.3-.4-1.7-.3-.4-.7-.8-1.2-1.1-.5-.3-1-.5-1.6-.7-.6-.2-1.2-.4-1.9-.6-.6-.2-1.3-.4-1.9-.7-.6-.3-1.2-.6-1.6-1-.5-.4-.9-.9-1.2-1.6-.3-.6-.4-1.4-.4-2.3 0-.9.2-1.7.5-2.3.3-.7.8-1.2 1.4-1.7.6-.5 1.3-.8 2-1 .8-.2 1.6-.3 2.4-.3 1.1 0 2.1.2 3 .6.9.4 1.7 1 2.4 1.9l-1.5.9c-.5-.7-1-1.1-1.6-1.5-.6-.3-1.4-.5-2.2-.5-.6 0-1.2.1-1.7.2-.5.2-1 .4-1.4.7-.4.3-.7.7-1 1.2-.2.5-.4 1-.4 1.6 0 1 .2 1.7.8 2.3.5.5 1.1 1 1.9 1.3.8.3 1.6.6 2.5.8.9.2 1.7.5 2.5.9s1.4.9 1.9 1.6c.5.7.8 1.7.8 2.9 0 .9-.2 1.7-.5 2.4s-.8 1.3-1.4 1.7c-.6.5-1.2.8-2 1.1-.7.2-1.5.4-2.3.4-1.3 0-2.5-.2-3.6-.7-1.1-.5-2-1.2-2.8-2.3l1.6-1.1zM92.3 87.4h-6.8v-1.7h15.4v1.7h-6.8v18.1h-1.8zM105.5 95.6c0-1.5.2-2.9.8-4.2.5-1.3 1.2-2.4 2.1-3.3.9-.9 2-1.6 3.2-2.2 1.3-.5 2.6-.8 4.1-.8 1.5 0 2.9.3 4.1.8 1.3.5 2.3 1.2 3.2 2.2.9.9 1.6 2 2.1 3.3.5 1.3.8 2.7.8 4.2s-.2 2.9-.8 4.2c-.5 1.3-1.2 2.4-2.1 3.3-.9.9-2 1.6-3.2 2.2-1.3.5-2.6.8-4.1.8-1.5 0-2.9-.3-4.1-.8-1.3-.5-2.3-1.2-3.2-2.2-.9-.9-1.6-2-2.1-3.3-.6-1.3-.8-2.7-.8-4.2m1.8 0c0 1.2.2 2.4.6 3.4.4 1.1 1 2 1.7 2.8.7.8 1.6 1.4 2.6 1.8 1 .4 2.2.7 3.5.7 1.3 0 2.4-.2 3.5-.7 1-.4 1.9-1.1 2.6-1.8.7-.8 1.3-1.7 1.7-2.8.4-1.1.6-2.2.6-3.4 0-1.2-.2-2.4-.6-3.4-.4-1.1-1-2-1.7-2.8-.7-.8-1.6-1.4-2.6-1.8-1-.4-2.2-.7-3.5-.7-1.3 0-2.4.2-3.5.7-1 .4-1.9 1.1-2.6 1.8-.7.8-1.3 1.7-1.7 2.8-.4 1-.6 2.2-.6 3.4M132.6 85.7h2.8l7.2 16.6 7.2-16.6h2.6v19.8h-1.8V88h-.1l-7.5 17.5h-.8L134.5 88v17.5h-1.9zM160.4 85.7h12.1v1.7h-10.2v7h9.6v1.7h-9.6v7.7H173v1.7h-12.6zM179.8 85.7H186.1c.4 0 .9.1 1.5.2.5.1 1.1.2 1.6.4s1 .5 1.4.9c.4.4.8.9 1.1 1.5.3.6.4 1.3.4 2.2 0 1-.2 1.7-.5 2.3-.3.6-.7 1.1-1.2 1.5-.5.4-1 .7-1.6.9-.6.2-1.2.3-1.7.4l5.8 9.5h-2.1l-5.6-9.4h-3.4v9.4H180V85.7zm1.8 8.7h3.9c1 0 1.8-.1 2.4-.4.6-.2 1.1-.5 1.4-.9.3-.4.6-.7.7-1.1.1-.4.2-.8.2-1.1 0-.3-.1-.7-.2-1.1-.1-.4-.3-.8-.7-1.1-.3-.4-.8-.7-1.4-.9-.6-.2-1.4-.4-2.4-.4h-3.9v7z"/></g><path d="M208.9 84.5h1.3v27.9h-1.3z"/><g id="Quality_1_"><path d="M248.2 105.5h-10.9c-1.4 0-2.7-.2-4-.7-1.3-.5-2.4-1.2-3.3-2.1-.9-.9-1.7-2-2.3-3.2-.6-1.2-.9-2.6-.9-4.2 0-1.4.2-2.8.7-4 .5-1.2 1.1-2.3 2-3.2.9-.9 1.9-1.6 3.2-2.1 1.2-.5 2.6-.8 4.1-.8 1.5 0 2.9.3 4.1.8 1.2.5 2.3 1.2 3.2 2.1.9.9 1.5 2 2 3.2.5 1.2.7 2.6.7 4 0 .9-.1 1.7-.3 2.6-.2.9-.6 1.7-1 2.4-.4.8-1 1.4-1.6 2-.6.6-1.3 1-2.1 1.3v.1h6.2v1.8zm-19.4-10.2c0 1.2.2 2.2.6 3.3.4 1 1 1.9 1.8 2.7.8.8 1.6 1.4 2.7 1.8 1 .4 2.2.7 3.4.7 1.3 0 2.4-.2 3.4-.7 1-.5 1.8-1.1 2.5-1.9.7-.8 1.2-1.7 1.5-2.7.3-1 .5-2.1.5-3.2 0-1.2-.2-2.3-.6-3.3-.4-1-.9-1.9-1.6-2.7-.7-.8-1.6-1.4-2.6-1.8-1-.4-2.2-.6-3.4-.6-1.3 0-2.4.2-3.4.6-1 .4-1.9 1-2.6 1.8-.7.8-1.2 1.7-1.6 2.7-.4 1-.6 2.1-.6 3.3M268.3 97.9c0 1.1-.1 2.1-.4 3-.2 1-.6 1.8-1.2 2.6-.6.7-1.3 1.3-2.2 1.8-.9.4-2.1.7-3.4.7-1.3 0-2.5-.2-3.4-.7-.9-.4-1.7-1-2.2-1.8-.6-.7-1-1.6-1.2-2.6-.2-1-.4-2-.4-3V85.7h1.8v11.7c0 .7.1 1.5.2 2.3.1.8.4 1.5.8 2.2.4.7.9 1.3 1.6 1.7.7.4 1.6.7 2.8.7 1.2 0 2.1-.2 2.8-.7.7-.4 1.2-1 1.6-1.7.4-.7.6-1.4.8-2.2.1-.8.2-1.6.2-2.3V85.7h1.8v12.2zM282.2 85.7h1.9l8.3 19.8h-2.1l-2.1-5.2h-10.5l-2.2 5.2h-1.9l8.6-19.8zm.9 2l-4.6 10.8h9.1l-4.5-10.8zM298.1 85.7h1.8v18.1h9.2v1.7h-11zM314.8 85.7h1.8v19.8h-1.8zM329.3 87.4h-6.8v-1.7h15.4v1.7h-6.8v18.1h-1.8zM348.1 96.9l-7.3-11.2h2.2l6 9.4 6.1-9.4h2.1l-7.3 11.2v8.6h-1.8z"/></g><path d="M372.3 84.5h1.3v27.9h-1.3z"/><g id="Innovation_1_"><path d="M391.6 85.7h1.8v19.8h-1.8zM401.7 85.7h2.3l12.1 17.3V85.7h1.9v19.8h-2.4l-12-17.3h-.1v17.3h-1.8zM426.2 85.7h2.3l12.1 17.3V85.7h1.9v19.8h-2.4l-12-17.3h-.1v17.3h-1.8zM449.4 95.6c0-1.5.2-2.9.8-4.2.5-1.3 1.2-2.4 2.1-3.3.9-.9 2-1.6 3.2-2.2 1.3-.5 2.6-.8 4.1-.8 1.5 0 2.9.3 4.1.8 1.3.5 2.3 1.2 3.2 2.2.9.9 1.6 2 2.1 3.3.5 1.3.8 2.7.8 4.2s-.3 2.9-.8 4.2c-.5 1.3-1.2 2.4-2.1 3.3-.9.9-2 1.6-3.2 2.2-1.3.5-2.6.8-4.1.8-1.5 0-2.9-.3-4.1-.8-1.3-.5-2.3-1.2-3.2-2.2-.9-.9-1.6-2-2.1-3.3-.5-1.3-.8-2.7-.8-4.2m1.8 0c0 1.2.2 2.4.6 3.4.4 1.1 1 2 1.7 2.8.7.8 1.6 1.4 2.6 1.8 1 .4 2.2.7 3.5.7 1.3 0 2.4-.2 3.5-.7 1-.4 1.9-1.1 2.6-1.8.7-.8 1.3-1.7 1.7-2.8.4-1.1.6-2.2.6-3.4 0-1.2-.2-2.4-.6-3.4-.4-1.1-1-2-1.7-2.8-.7-.8-1.6-1.4-2.6-1.8-1-.4-2.2-.7-3.5-.7-1.3 0-2.4.2-3.5.7-1 .4-1.9 1.1-2.6 1.8-.7.8-1.3 1.7-1.7 2.8-.4 1-.6 2.2-.6 3.4M474 85.7h2l6.3 17.3 6.4-17.3h2l-7.5 19.8h-1.9zM500.6 85.7h1.9l8.3 19.8h-2.1l-2.2-5.2H496l-2.2 5.2H492l8.6-19.8zm.9 2l-4.6 10.8h9.1l-4.5-10.8zM519 87.4h-6.8v-1.7h15.4v1.7h-6.8v18.1H519zM533.4 85.7h1.8v19.8h-1.8zM542.2 95.6c0-1.5.2-2.9.8-4.2.5-1.3 1.2-2.4 2.1-3.3.9-.9 2-1.6 3.2-2.2 1.3-.5 2.6-.8 4.1-.8 1.5 0 2.9.3 4.1.8 1.3.5 2.3 1.2 3.2 2.2.9.9 1.6 2 2.1 3.3.5 1.3.8 2.7.8 4.2s-.2 2.9-.8 4.2c-.5 1.3-1.2 2.4-2.1 3.3-.9.9-2 1.6-3.2 2.2-1.3.5-2.6.8-4.1.8-1.5 0-2.9-.3-4.1-.8-1.3-.5-2.3-1.2-3.2-2.2-.9-.9-1.6-2-2.1-3.3-.6-1.3-.8-2.7-.8-4.2m1.8 0c0 1.2.2 2.4.6 3.4.4 1.1.9 2 1.7 2.8.7.8 1.6 1.4 2.6 1.8 1 .4 2.2.7 3.5.7 1.3 0 2.4-.2 3.5-.7 1-.4 1.9-1.1 2.6-1.8.7-.8 1.3-1.7 1.7-2.8.4-1.1.6-2.2.6-3.4 0-1.2-.2-2.4-.6-3.4-.4-1.1-1-2-1.7-2.8-.7-.8-1.6-1.4-2.6-1.8-1-.4-2.2-.7-3.5-.7-1.3 0-2.4.2-3.5.7-1 .4-1.9 1.1-2.6 1.8-.7.8-1.3 1.7-1.7 2.8-.4 1-.6 2.2-.6 3.4M569.5 85.7h2.4l12 17.3h.1V85.7h1.8v19.8h-2.3l-12.1-17.3v17.3h-1.9z"/></g></g><g id="Kroger_Technology_1_"><defs><path id="SVGID_1_" d="M9.2 18.6H603v104.8H9.2z"/></defs><clipPath id="SVGID_2_"><use xlink:href="#SVGID_1_" overflow="visible"/></clipPath><path class="st2" d="M577.1 64.1v-.5h2.3v.5h-.9v2.3h-.5v-2.3h-.9zm3.6-.5l.7 2 .7-2h.8v2.7h-.5v-2.2l-.8 2.2h-.4l-.8-2.2v2.2h-.5v-2.7h.8zM566.1 50.8L552.5 30h9.9l7.7 13.6 8.1-13.6h9.5l-13.6 20.8v15.4h-8zM551.5 63.7c-2.4 1.2-4.8 2.1-7.4 2.7-2.6.5-5.2.8-7.8.8-2.8 0-5.4-.4-7.8-1.3-2.4-.9-4.5-2.2-6.2-3.8-1.7-1.7-3.1-3.7-4.1-6-1-2.4-1.5-5-1.5-7.9 0-2.9.5-5.5 1.5-7.9 1-2.4 2.3-4.4 4.1-6 1.7-1.7 3.8-2.9 6.2-3.8 2.4-.9 5-1.3 7.8-1.3 2.9 0 5.6.3 8 1 2.4.7 4.6 1.9 6.4 3.6l-5.6 6.1c-1.1-1.1-2.3-2-3.7-2.6-1.4-.6-3.1-.9-5.1-.9-1.7 0-3.2.3-4.6.9-1.4.6-2.6 1.4-3.6 2.4s-1.7 2.3-2.3 3.7c-.5 1.4-.8 3-.8 4.7 0 1.7.3 3.3.8 4.7.5 1.4 1.3 2.6 2.3 3.7 1 1 2.2 1.9 3.6 2.4 1.4.6 2.9.9 4.6.9 1.7 0 3.2-.2 4.5-.6 1.3-.4 2.3-.8 3-1.2v-5.9h-6.5v-7.4h14.2v19zM474.1 48.1c0-2.9.5-5.5 1.5-7.9 1-2.4 2.3-4.4 4.1-6 1.7-1.7 3.8-2.9 6.2-3.8 2.4-.9 5-1.3 7.8-1.3s5.4.4 7.8 1.3c2.4.9 4.5 2.2 6.2 3.8 1.7 1.7 3.1 3.7 4.1 6 1 2.4 1.5 5 1.5 7.9 0 2.9-.5 5.5-1.5 7.9-1 2.4-2.3 4.4-4.1 6-1.7 1.7-3.8 2.9-6.2 3.8-2.4.9-5 1.3-7.8 1.3s-5.4-.4-7.8-1.3c-2.4-.9-4.5-2.2-6.2-3.8-1.7-1.7-3.1-3.7-4.1-6-1-2.4-1.5-5-1.5-7.9m8.3 0c0 1.7.3 3.3.8 4.7.5 1.4 1.3 2.6 2.3 3.7 1 1 2.2 1.9 3.6 2.4 1.4.6 2.9.9 4.6.9 1.7 0 3.3-.3 4.6-.9 1.4-.6 2.6-1.4 3.6-2.4s1.7-2.3 2.3-3.7c.5-1.4.8-3 .8-4.7 0-1.7-.3-3.2-.8-4.7-.5-1.4-1.3-2.7-2.3-3.7-1-1-2.2-1.9-3.6-2.4-1.4-.6-2.9-.9-4.6-.9-1.7 0-3.2.3-4.6.9-1.4.6-2.6 1.4-3.6 2.4s-1.7 2.3-2.3 3.7c-.5 1.5-.8 3-.8 4.7M450.2 30h8v28.9H473v7.3h-22.8zM405.3 48.1c0-2.9.5-5.5 1.5-7.9 1-2.4 2.3-4.4 4.1-6 1.7-1.7 3.8-2.9 6.2-3.8 2.4-.9 5-1.3 7.8-1.3s5.4.4 7.8 1.3c2.4.9 4.5 2.2 6.2 3.8 1.7 1.7 3.1 3.7 4.1 6 1 2.4 1.5 5 1.5 7.9 0 2.9-.5 5.5-1.5 7.9-1 2.4-2.3 4.4-4.1 6-1.7 1.7-3.8 2.9-6.2 3.8-2.4.9-5 1.3-7.8 1.3s-5.4-.4-7.8-1.3c-2.4-.9-4.5-2.2-6.2-3.8-1.7-1.7-3.1-3.7-4.1-6-1-2.4-1.5-5-1.5-7.9m8.3 0c0 1.7.3 3.3.8 4.7.5 1.4 1.3 2.6 2.3 3.7 1 1 2.2 1.9 3.6 2.4 1.4.6 2.9.9 4.6.9 1.7 0 3.3-.3 4.6-.9 1.4-.6 2.6-1.4 3.6-2.4s1.7-2.3 2.3-3.7c.5-1.4.8-3 .8-4.7 0-1.7-.3-3.2-.8-4.7-.5-1.4-1.3-2.7-2.3-3.7-1-1-2.2-1.9-3.6-2.4-1.4-.6-2.9-.9-4.6-.9-1.7 0-3.2.3-4.6.9-1.4.6-2.6 1.4-3.6 2.4s-1.7 2.3-2.3 3.7c-.5 1.5-.8 3-.8 4.7M365.6 30h10.8l15.4 25.2h.1V30h8v36.2h-10.4l-15.8-25.8h-.1v25.8h-8zM326.7 30h8v13.5h15.5V30h8v36.2h-8V50.6h-15.5v15.6h-8zM316.6 39.4c-.8-1-1.8-1.7-2.9-2.2-1.1-.5-2.5-.8-4-.8s-2.9.3-4.2.9c-1.3.6-2.4 1.4-3.3 2.4-.9 1-1.7 2.3-2.2 3.7-.5 1.4-.8 3-.8 4.7 0 1.7.3 3.3.8 4.7.5 1.4 1.3 2.6 2.2 3.7.9 1 2 1.9 3.3 2.4 1.2.6 2.6.9 4 .9 1.6 0 3.1-.3 4.4-1 1.3-.7 2.3-1.6 3.1-2.9l6.7 5c-1.5 2.2-3.5 3.7-5.8 4.8-2.4 1-4.8 1.5-7.3 1.5-2.8 0-5.4-.4-7.8-1.3-2.4-.9-4.5-2.2-6.2-3.8-1.7-1.7-3.1-3.7-4.1-6-1-2.4-1.5-5-1.5-7.9 0-2.9.5-5.5 1.5-7.9 1-2.4 2.3-4.4 4.1-6 1.7-1.7 3.8-2.9 6.2-3.8 2.4-.9 5-1.3 7.8-1.3 1 0 2.1.1 3.2.3 1.1.2 2.2.5 3.3.9 1.1.4 2.1 1 3.1 1.6 1 .7 1.9 1.5 2.7 2.5l-6.3 4.9zM262.3 30h24.6v7.4h-16.6v6.7H286v7.4h-15.7v7.4h17.5v7.3h-25.5zM239.6 37h-10.3v-7h28.6v7h-10.3v29.2h-8zM192.8 30h11.4c.8 0 1.7.1 2.7.3 1 .2 1.9.4 2.9.8s1.9.9 2.7 1.6c.8.7 1.4 1.6 1.9 2.7s.8 2.4.8 4c0 1.7-.3 3.2-.9 4.3-.6 1.1-1.3 2-2.3 2.7-.9.7-1.9 1.2-3 1.6-1.1.3-2.1.6-3.1.7l10.5 17.4h-3.8L202.4 49h-6.3v17.2h-3.4V30zm3.3 16h7.2c1.8 0 3.2-.2 4.3-.7 1.1-.4 2-1 2.6-1.6.6-.6 1-1.3 1.3-2.1.2-.8.3-1.4.3-2 0-.6-.1-1.3-.3-2-.2-.7-.6-1.4-1.3-2.1-.6-.6-1.5-1.2-2.6-1.6-1.1-.4-2.6-.7-4.3-.7h-7.2V46zM163.7 30h22.2v3.1h-18.8V46h17.6v3h-17.6v14.2h19.6v3h-23zM155 63.9c-2.1 1.2-4.3 2-6.6 2.5s-4.6.7-6.9.7c-2.8 0-5.3-.5-7.6-1.4-2.3-.9-4.3-2.3-5.9-3.9-1.6-1.7-2.9-3.7-3.8-6-.9-2.3-1.4-4.9-1.4-7.6 0-2.8.5-5.3 1.4-7.6.9-2.3 2.2-4.3 3.8-6 1.6-1.7 3.6-3 5.9-4 2.3-1 4.8-1.4 7.6-1.4 5.4 0 9.7 1.7 13.1 5l-2.5 2.6c-.5-.6-1.2-1.3-2-1.8-.8-.6-1.7-1-2.6-1.4-.9-.4-1.9-.7-2.9-.9-1-.2-2-.3-3-.3-2.4 0-4.5.4-6.4 1.2-1.9.8-3.5 1.9-4.8 3.4-1.3 1.4-2.4 3.1-3.1 5.1-.7 1.9-1.1 4-1.1 6.3s.4 4.4 1.1 6.3c.7 1.9 1.7 3.6 3.1 5.1 1.3 1.4 2.9 2.6 4.8 3.4 1.9.8 4 1.2 6.4 1.2 1.9 0 3.8-.2 5.5-.5 1.7-.3 3.3-.9 4.7-1.7V49.7H143v-3.1h12v17.3zM81.4 48.1c0-2.8.5-5.3 1.4-7.6.9-2.3 2.2-4.3 3.8-6 1.6-1.7 3.6-3 5.9-4 2.3-1 4.8-1.4 7.6-1.4s5.3.5 7.6 1.4c2.3 1 4.3 2.3 5.9 4 1.6 1.7 2.9 3.7 3.8 6 .9 2.3 1.4 4.9 1.4 7.6 0 2.8-.5 5.3-1.4 7.7-.9 2.3-2.2 4.4-3.8 6-1.6 1.7-3.6 3-5.9 3.9-2.3.9-4.8 1.4-7.6 1.4s-5.3-.5-7.6-1.4c-2.3-.9-4.3-2.3-5.9-3.9-1.6-1.7-2.9-3.7-3.8-6-1-2.4-1.4-4.9-1.4-7.7m3.4 0c0 2.3.4 4.4 1.1 6.3.7 1.9 1.7 3.6 3.1 5.1 1.3 1.4 2.9 2.6 4.8 3.4 1.9.8 4 1.2 6.4 1.2 2.4 0 4.5-.4 6.4-1.2 1.9-.8 3.5-1.9 4.8-3.4 1.3-1.4 2.4-3.1 3.1-5.1.7-1.9 1.1-4 1.1-6.3s-.4-4.4-1.1-6.3c-.7-1.9-1.7-3.6-3.1-5.1-1.3-1.4-2.9-2.6-4.8-3.4-1.9-.8-4-1.2-6.4-1.2-2.4 0-4.5.4-6.4 1.2-1.9.8-3.5 1.9-4.8 3.4-1.3 1.4-2.4 3.1-3.1 5.1-.8 2-1.1 4.1-1.1 6.3M54.7 30h11.4c.8 0 1.7.1 2.7.3 1 .2 1.9.4 2.9.8s1.9.9 2.7 1.6c.8.7 1.4 1.6 1.9 2.7s.8 2.4.8 4c0 1.7-.3 3.2-.9 4.3-.6 1.1-1.3 2-2.3 2.7-.9.7-1.9 1.2-3 1.6-1.1.3-2.1.6-3.1.7l10.5 17.4h-3.8L64.3 49H58v17.2h-3.4V30zM58 46h7.2c1.8 0 3.2-.2 4.3-.7 1.1-.4 2-1 2.6-1.6.6-.6 1-1.3 1.3-2.1.2-.8.3-1.4.3-2 0-.6-.1-1.3-.3-2-.2-.7-.6-1.4-1.3-2.1-.6-.6-1.5-1.2-2.6-1.6-1.1-.4-2.5-.7-4.3-.7H58V46zM24.7 30H28v16h.4l17.5-16h4.7L32.2 46.6l19.4 19.6h-4.9L28.4 47.5H28v18.7h-3.3z"/></g></g></svg>
