<svg viewBox="0 0 769 143" width="769" height="143" xmlns="http://www.w3.org/2000/svg" xmlns:xlink="http://www.w3.org/1999/xlink"><clipPath id="a"><path d="m9.2 18.6h593.8v104.8h-593.8z"/></clipPath><path d="m693.8 121c-33.6 0-60.9-22.4-60.9-50s27.3-50 60.9-50 60.9 22.4 60.9 50-27.3 50-60.9 50" fill="#0768b1"/><g fill="#fff"><path d="m693.8 21.9c33.1 0 59.9 22 59.9 49.1s-26.8 49.1-59.9 49.1-59.9-22-59.9-49.1 26.8-49.1 59.9-49.1m0-1.9c-16.4 0-31.9 5.3-43.6 14.8-5.7 4.7-10.2 10.1-13.3 16.2-3.3 6.3-4.9 13-4.9 20 0 6.9 1.7 13.7 4.9 20 3.1 6.1 7.6 11.5 13.3 16.2 11.7 9.5 27.1 14.8 43.6 14.8 16.4 0 31.9-5.3 43.6-14.8 5.7-4.7 10.2-10.1 13.3-16.2 3.3-6.3 4.9-13 4.9-20 0-6.9-1.7-13.7-4.9-20-3.1-6.1-7.6-11.5-13.3-16.2-11.7-9.5-27.1-14.8-43.6-14.8z"/><path d="m693.8 26.9c30.3 0 54.9 19.7 54.9 44s-24.6 44-54.9 44-54.9-19.7-54.9-44 24.6-44 54.9-44m0-1.9c-15.1 0-29.3 4.7-40 13.3-5.2 4.2-9.4 9.1-12.3 14.6-3 5.7-4.5 11.8-4.5 18 0 6.3 1.5 12.3 4.5 18 2.9 5.5 7 10.4 12.3 14.6 10.7 8.6 24.9 13.3 40 13.3s29.3-4.7 40-13.3c5.2-4.2 9.4-9.1 12.3-14.6 3-5.7 4.5-11.8 4.5-18 0-6.3-1.5-12.3-4.5-18-2.9-5.5-7-10.4-12.3-14.6-10.7-8.6-24.9-13.3-40-13.3z"/><path d="m677.7 63s-.7-.3-1.9-.3c-2.2 0-3.6 1.4-3.6 1.4l-.5-1.4h-4.2v22.1h5.2v-13.4c0-1.2.6-1.8 1-2.2 1.4-1.3 4-1.3 4-1.3zm64.7 0s-.7-.3-1.9-.3c-2.2 0-3.6 1.4-3.6 1.4l-.5-1.4h-4.2v22.1h5.2v-13.4c0-1.2.6-1.8 1-2.2 1.4-1.3 4-1.3 4-1.3zm-25.1 24c.3.3.5.7.5 1.2s-.2.9-.5 1.2-.7.5-1.2.5-.9-.2-1.2-.5-.5-.8-.5-1.2c0-.5.2-.9.5-1.2s.7-.5 1.2-.5.9.2 1.2.5m.3-.2c-.4-.4-.9-.6-1.5-.6-.5 0-1 .2-1.4.6s-.7.9-.7 1.5.2 1.1.6 1.5.9.6 1.5.6 1.1-.2 1.5-.6.6-.9.6-1.5-.2-1.1-.6-1.5zm-1.2 1.3c-.1.1-.2.1-.3.1h-.2v-.7h.4c.1 0 .2.1.2.3s-.1.2-.1.3zm-.6.5h.4c.1 0 .1.1.2.2v.6h.6v-.1-.1-.2c0-.2-.1-.4-.2-.5s-.2-.1-.3-.1c.2 0 .3-.1.4-.2s.2-.2.2-.4c0-.3-.1-.4-.3-.6-.1-.1-.3-.1-.5-.1h-1.1v2.3h.6zm-21.2-14.8c0-6.1-2.9-11.1-8.5-11.1-5.5 0-8.5 5-8.5 11.1s2.6 11.1 8.5 11.1c5.8-.1 8.5-5 8.5-11.1m-12 0c0-4 1-6.8 3.5-6.8s3.5 2.9 3.5 6.8c0 4-1 6.8-3.5 6.8s-3.5-2.9-3.5-6.8zm43.3 2.1c-.3 2.8-1.3 4.6-3.4 4.6-2.4 0-3.4-2.8-3.5-6.6h11.9c.1-2-.3-3.7-.3-3.7-.9-4.4-3.7-7.6-8.2-7.6-5.5 0-8.5 5-8.5 11.1s2.6 11.1 8.5 11.1c5.1 0 7.8-3.8 8.4-8.9zm-3.7-9c1.7 0 2.7 1.3 3.1 3.4h-6.3c.5-2.1 1.5-3.4 3.2-3.4z"/><path d="m712.8 85.5v-22.9h-5.5v1.2c-.7-.7-2-1.1-3-1.2-5.5-.1-8.5 4.9-8.5 11.1s2.6 11.1 8.6 11.1c1.1 0 2.2-.5 3.1-.8.3 4.3.4 18.6-9.1 18.9-10.3.2-9.2-14.7-9.2-15.1h-5.6s-.7 18.8 14.2 18.8c16.2 0 15-19.4 15-21.1m-8.5-4.9c-2.5 0-3.5-2.9-3.5-6.9s1-6.9 3.5-6.9 3.5 2.9 3.5 6.9-.9 6.9-3.5 6.9zm-29.3-41.1c-7.2 0-11.3 4.1-13.3 8.8 0 .1-.1.2-.1.3v.1c-1 2.5-1.1 4.6-1.1 4.9.3 11.9-5.4 12.7-5.4 12.7-.1-1 0-13.9 0-13.9h-5.5v32.5h5.5v-13.6c0-.6 4.9 0 5.2 6.2v7.4h5.8c-.1-.9 1.2-15.4-6.1-15.5-1.2 0 6-1.7 5.8-12.4 0-2.4.2-4.5.7-6.4 1.2-3.8 3.4-7.3 7.8-7.3 10.1-.1 8.9 16.3 9 16.5h5.6c.2-.1 1.2-20.3-13.9-20.3"/></g><path d="m41.5 102.4c-.9 1.3-2 2.2-3.3 2.8-1.2.6-2.6.8-4 .8-1.5 0-2.9-.3-4.1-.8-1.3-.5-2.3-1.2-3.2-2.2-.9-.9-1.6-2-2.1-3.3s-.8-2.7-.8-4.2.2-2.9.8-4.2c.5-1.3 1.2-2.4 2.1-3.3s2-1.6 3.2-2.2c1.3-.5 2.6-.8 4.1-.8 1.3 0 2.6.2 3.8.7s2.2 1.3 3.1 2.4l-1.5 1.3c-.6-.9-1.4-1.6-2.4-2s-1.9-.6-2.9-.6c-1.3 0-2.4.2-3.5.7-1 .4-1.9 1.1-2.6 1.8-.7.8-1.3 1.7-1.7 2.8s-.6 2.2-.6 3.4.2 2.4.6 3.4c.4 1.1 1 2 1.7 2.8s1.6 1.4 2.6 1.8 2.2.7 3.5.7c.5 0 1-.1 1.6-.2.5-.1 1.1-.3 1.6-.6l1.5-.9c.5-.3.9-.8 1.2-1.4zm20.3-4.5c0 1.1-.1 2.1-.4 3-.2 1-.6 1.8-1.2 2.6-.6.7-1.3 1.3-2.2 1.8-.9.4-2.1.7-3.4.7s-2.5-.2-3.4-.7c-.9-.4-1.7-1-2.2-1.8-.6-.7-1-1.6-1.2-2.6s-.4-2-.4-3v-12.2h1.8v11.7c0 .7.1 1.5.2 2.3s.4 1.5.8 2.2.9 1.3 1.6 1.7 1.6.7 2.8.7 2.1-.2 2.8-.7c.7-.4 1.2-1 1.6-1.7s.6-1.4.8-2.2c.1-.8.2-1.6.2-2.3v-11.7h1.8zm8.3 3.9c.5.8 1.1 1.5 1.9 1.9s1.7.6 2.6.6c.6 0 1.2-.1 1.7-.3s1-.4 1.4-.8c.4-.3.7-.7 1-1.2.2-.5.3-1 .3-1.6 0-.7-.1-1.3-.4-1.7s-.7-.8-1.2-1.1-1-.5-1.6-.7-1.2-.4-1.9-.6c-.6-.2-1.3-.4-1.9-.7s-1.2-.6-1.6-1c-.5-.4-.9-.9-1.2-1.6-.3-.6-.4-1.4-.4-2.3s.2-1.7.5-2.3c.3-.7.8-1.2 1.4-1.7s1.3-.8 2-1c.8-.2 1.6-.3 2.4-.3 1.1 0 2.1.2 3 .6s1.7 1 2.4 1.9l-1.5.9c-.5-.7-1-1.1-1.6-1.5-.6-.3-1.4-.5-2.2-.5-.6 0-1.2.1-1.7.2-.5.2-1 .4-1.4.7s-.7.7-1 1.2c-.2.5-.4 1-.4 1.6 0 1 .2 1.7.8 2.3.5.5 1.1 1 1.9 1.3s1.6.6 2.5.8 1.7.5 2.5.9 1.4.9 1.9 1.6.8 1.7.8 2.9c0 .9-.2 1.7-.5 2.4s-.8 1.3-1.4 1.7c-.6.5-1.2.8-2 1.1-.7.2-1.5.4-2.3.4-1.3 0-2.5-.2-3.6-.7s-2-1.2-2.8-2.3zm22.2-14.4h-6.8v-1.7h15.4v1.7h-6.8v18.1h-1.8zm13.2 8.2c0-1.5.2-2.9.8-4.2.5-1.3 1.2-2.4 2.1-3.3s2-1.6 3.2-2.2c1.3-.5 2.6-.8 4.1-.8s2.9.3 4.1.8c1.3.5 2.3 1.2 3.2 2.2.9.9 1.6 2 2.1 3.3s.8 2.7.8 4.2-.2 2.9-.8 4.2c-.5 1.3-1.2 2.4-2.1 3.3s-2 1.6-3.2 2.2c-1.3.5-2.6.8-4.1.8s-2.9-.3-4.1-.8c-1.3-.5-2.3-1.2-3.2-2.2-.9-.9-1.6-2-2.1-3.3-.6-1.3-.8-2.7-.8-4.2m1.8 0c0 1.2.2 2.4.6 3.4.4 1.1 1 2 1.7 2.8s1.6 1.4 2.6 1.8 2.2.7 3.5.7 2.4-.2 3.5-.7c1-.4 1.9-1.1 2.6-1.8.7-.8 1.3-1.7 1.7-2.8s.6-2.2.6-3.4-.2-2.4-.6-3.4c-.4-1.1-1-2-1.7-2.8s-1.6-1.4-2.6-1.8-2.2-.7-3.5-.7-2.4.2-3.5.7c-1 .4-1.9 1.1-2.6 1.8-.7.8-1.3 1.7-1.7 2.8-.4 1-.6 2.2-.6 3.4m25.3-9.9h2.8l7.2 16.6 7.2-16.6h2.6v19.8h-1.8v-17.5h-.1l-7.5 17.5h-.8l-7.7-17.5v17.5h-1.9zm27.8 0h12.1v1.7h-10.2v7h9.6v1.7h-9.6v7.7h10.7v1.7h-12.6zm19.4 0h6.3c.4 0 .9.1 1.5.2.5.1 1.1.2 1.6.4s1 .5 1.4.9.8.9 1.1 1.5.4 1.3.4 2.2c0 1-.2 1.7-.5 2.3s-.7 1.1-1.2 1.5-1 .7-1.6.9-1.2.3-1.7.4l5.8 9.5h-2.1l-5.6-9.4h-3.4v9.4h-1.8v-19.8zm1.8 8.7h3.9c1 0 1.8-.1 2.4-.4.6-.2 1.1-.5 1.4-.9s.6-.7.7-1.1.2-.8.2-1.1-.1-.7-.2-1.1-.3-.8-.7-1.1c-.3-.4-.8-.7-1.4-.9s-1.4-.4-2.4-.4h-3.9z"/><path d="m208.9 84.5h1.3v27.9h-1.3z"/><path d="m248.2 105.5h-10.9c-1.4 0-2.7-.2-4-.7s-2.4-1.2-3.3-2.1-1.7-2-2.3-3.2-.9-2.6-.9-4.2c0-1.4.2-2.8.7-4s1.1-2.3 2-3.2 1.9-1.6 3.2-2.1c1.2-.5 2.6-.8 4.1-.8s2.9.3 4.1.8 2.3 1.2 3.2 2.1 1.5 2 2 3.2.7 2.6.7 4c0 .9-.1 1.7-.3 2.6s-.6 1.7-1 2.4c-.4.8-1 1.4-1.6 2s-1.3 1-2.1 1.3v.1h6.2v1.8zm-19.4-10.2c0 1.2.2 2.2.6 3.3.4 1 1 1.9 1.8 2.7s1.6 1.4 2.7 1.8c1 .4 2.2.7 3.4.7 1.3 0 2.4-.2 3.4-.7s1.8-1.1 2.5-1.9 1.2-1.7 1.5-2.7.5-2.1.5-3.2c0-1.2-.2-2.3-.6-3.3s-.9-1.9-1.6-2.7-1.6-1.4-2.6-1.8-2.2-.6-3.4-.6c-1.3 0-2.4.2-3.4.6s-1.9 1-2.6 1.8-1.2 1.7-1.6 2.7-.6 2.1-.6 3.3m39.5 2.6c0 1.1-.1 2.1-.4 3-.2 1-.6 1.8-1.2 2.6-.6.7-1.3 1.3-2.2 1.8-.9.4-2.1.7-3.4.7s-2.5-.2-3.4-.7c-.9-.4-1.7-1-2.2-1.8-.6-.7-1-1.6-1.2-2.6s-.4-2-.4-3v-12.2h1.8v11.7c0 .7.1 1.5.2 2.3s.4 1.5.8 2.2.9 1.3 1.6 1.7 1.6.7 2.8.7 2.1-.2 2.8-.7c.7-.4 1.2-1 1.6-1.7s.6-1.4.8-2.2c.1-.8.2-1.6.2-2.3v-11.7h1.8zm13.9-12.2h1.9l8.3 19.8h-2.1l-2.1-5.2h-10.5l-2.2 5.2h-1.9zm.9 2-4.6 10.8h9.1zm15-2h1.8v18.1h9.2v1.7h-11zm16.7 0h1.8v19.8h-1.8zm14.5 1.7h-6.8v-1.7h15.4v1.7h-6.8v18.1h-1.8zm18.8 9.5-7.3-11.2h2.2l6 9.4 6.1-9.4h2.1l-7.3 11.2v8.6h-1.8z"/><path d="m372.3 84.5h1.3v27.9h-1.3z"/><path d="m391.6 85.7h1.8v19.8h-1.8zm10.1 0h2.3l12.1 17.3v-17.3h1.9v19.8h-2.4l-12-17.3h-.1v17.3h-1.8zm24.5 0h2.3l12.1 17.3v-17.3h1.9v19.8h-2.4l-12-17.3h-.1v17.3h-1.8zm23.2 9.9c0-1.5.2-2.9.8-4.2.5-1.3 1.2-2.4 2.1-3.3s2-1.6 3.2-2.2c1.3-.5 2.6-.8 4.1-.8s2.9.3 4.1.8c1.3.5 2.3 1.2 3.2 2.2.9.9 1.6 2 2.1 3.3s.8 2.7.8 4.2-.3 2.9-.8 4.2-1.2 2.4-2.1 3.3-2 1.6-3.2 2.2c-1.3.5-2.6.8-4.1.8s-2.9-.3-4.1-.8c-1.3-.5-2.3-1.2-3.2-2.2-.9-.9-1.6-2-2.1-3.3s-.8-2.7-.8-4.2m1.8 0c0 1.2.2 2.4.6 3.4.4 1.1 1 2 1.7 2.8s1.6 1.4 2.6 1.8 2.2.7 3.5.7 2.4-.2 3.5-.7c1-.4 1.9-1.1 2.6-1.8.7-.8 1.3-1.7 1.7-2.8s.6-2.2.6-3.4-.2-2.4-.6-3.4c-.4-1.1-1-2-1.7-2.8s-1.6-1.4-2.6-1.8-2.2-.7-3.5-.7-2.4.2-3.5.7c-1 .4-1.9 1.1-2.6 1.8-.7.8-1.3 1.7-1.7 2.8-.4 1-.6 2.2-.6 3.4m22.8-9.9h2l6.3 17.3 6.4-17.3h2l-7.5 19.8h-1.9zm26.6 0h1.9l8.3 19.8h-2.1l-2.2-5.2h-10.5l-2.2 5.2h-1.8zm.9 2-4.6 10.8h9.1zm17.5-.3h-6.8v-1.7h15.4v1.7h-6.8v18.1h-1.8zm14.4-1.7h1.8v19.8h-1.8zm8.8 9.9c0-1.5.2-2.9.8-4.2.5-1.3 1.2-2.4 2.1-3.3s2-1.6 3.2-2.2c1.3-.5 2.6-.8 4.1-.8s2.9.3 4.1.8c1.3.5 2.3 1.2 3.2 2.2.9.9 1.6 2 2.1 3.3s.8 2.7.8 4.2-.2 2.9-.8 4.2c-.5 1.3-1.2 2.4-2.1 3.3s-2 1.6-3.2 2.2c-1.3.5-2.6.8-4.1.8s-2.9-.3-4.1-.8c-1.3-.5-2.3-1.2-3.2-2.2-.9-.9-1.6-2-2.1-3.3-.6-1.3-.8-2.7-.8-4.2m1.8 0c0 1.2.2 2.4.6 3.4.4 1.1.9 2 1.7 2.8.7.8 1.6 1.4 2.6 1.8s2.2.7 3.5.7 2.4-.2 3.5-.7c1-.4 1.9-1.1 2.6-1.8.7-.8 1.3-1.7 1.7-2.8s.6-2.2.6-3.4-.2-2.4-.6-3.4c-.4-1.1-1-2-1.7-2.8s-1.6-1.4-2.6-1.8-2.2-.7-3.5-.7-2.4.2-3.5.7c-1 .4-1.9 1.1-2.6 1.8-.7.8-1.3 1.7-1.7 2.8-.4 1-.6 2.2-.6 3.4m25.5-9.9h2.4l12 17.3h.1v-17.3h1.8v19.8h-2.3l-12.1-17.3v17.3h-1.9z"/><path clip-path="url(#a)" d="m577.1 64.1v-.5h2.3v.5h-.9v2.3h-.5v-2.3zm3.6-.5.7 2 .7-2h.8v2.7h-.5v-2.2l-.8 2.2h-.4l-.8-2.2v2.2h-.5v-2.7zm-14.6-12.8-13.6-20.8h9.9l7.7 13.6 8.1-13.6h9.5l-13.6 20.8v15.4h-8zm-14.6 12.9c-2.4 1.2-4.8 2.1-7.4 2.7-2.6.5-5.2.8-7.8.8-2.8 0-5.4-.4-7.8-1.3s-4.5-2.2-6.2-3.8c-1.7-1.7-3.1-3.7-4.1-6-1-2.4-1.5-5-1.5-7.9s.5-5.5 1.5-7.9 2.3-4.4 4.1-6c1.7-1.7 3.8-2.9 6.2-3.8s5-1.3 7.8-1.3c2.9 0 5.6.3 8 1s4.6 1.9 6.4 3.6l-5.6 6.1c-1.1-1.1-2.3-2-3.7-2.6s-3.1-.9-5.1-.9c-1.7 0-3.2.3-4.6.9s-2.6 1.4-3.6 2.4-1.7 2.3-2.3 3.7c-.5 1.4-.8 3-.8 4.7s.3 3.3.8 4.7 1.3 2.6 2.3 3.7c1 1 2.2 1.9 3.6 2.4 1.4.6 2.9.9 4.6.9s3.2-.2 4.5-.6 2.3-.8 3-1.2v-5.9h-6.5v-7.4h14.2zm-77.4-15.6c0-2.9.5-5.5 1.5-7.9s2.3-4.4 4.1-6c1.7-1.7 3.8-2.9 6.2-3.8s5-1.3 7.8-1.3 5.4.4 7.8 1.3 4.5 2.2 6.2 3.8c1.7 1.7 3.1 3.7 4.1 6 1 2.4 1.5 5 1.5 7.9s-.5 5.5-1.5 7.9-2.3 4.4-4.1 6c-1.7 1.7-3.8 2.9-6.2 3.8s-5 1.3-7.8 1.3-5.4-.4-7.8-1.3-4.5-2.2-6.2-3.8c-1.7-1.7-3.1-3.7-4.1-6-1-2.4-1.5-5-1.5-7.9m8.3 0c0 1.7.3 3.3.8 4.7s1.3 2.6 2.3 3.7c1 1 2.2 1.9 3.6 2.4 1.4.6 2.9.9 4.6.9s3.3-.3 4.6-.9c1.4-.6 2.6-1.4 3.6-2.4s1.7-2.3 2.3-3.7c.5-1.4.8-3 .8-4.7s-.3-3.2-.8-4.7c-.5-1.4-1.3-2.7-2.3-3.7s-2.2-1.9-3.6-2.4c-1.4-.6-2.9-.9-4.6-.9s-3.2.3-4.6.9-2.6 1.4-3.6 2.4-1.7 2.3-2.3 3.7c-.5 1.5-.8 3-.8 4.7m-32.2-18.1h8v28.9h14.8v7.3h-22.8zm-44.9 18.1c0-2.9.5-5.5 1.5-7.9s2.3-4.4 4.1-6c1.7-1.7 3.8-2.9 6.2-3.8s5-1.3 7.8-1.3 5.4.4 7.8 1.3 4.5 2.2 6.2 3.8c1.7 1.7 3.1 3.7 4.1 6 1 2.4 1.5 5 1.5 7.9s-.5 5.5-1.5 7.9-2.3 4.4-4.1 6c-1.7 1.7-3.8 2.9-6.2 3.8s-5 1.3-7.8 1.3-5.4-.4-7.8-1.3-4.5-2.2-6.2-3.8c-1.7-1.7-3.1-3.7-4.1-6-1-2.4-1.5-5-1.5-7.9m8.3 0c0 1.7.3 3.3.8 4.7s1.3 2.6 2.3 3.7c1 1 2.2 1.9 3.6 2.4 1.4.6 2.9.9 4.6.9s3.3-.3 4.6-.9c1.4-.6 2.6-1.4 3.6-2.4s1.7-2.3 2.3-3.7c.5-1.4.8-3 .8-4.7s-.3-3.2-.8-4.7c-.5-1.4-1.3-2.7-2.3-3.7s-2.2-1.9-3.6-2.4c-1.4-.6-2.9-.9-4.6-.9s-3.2.3-4.6.9-2.6 1.4-3.6 2.4-1.7 2.3-2.3 3.7c-.5 1.5-.8 3-.8 4.7m-48-18.1h10.8l15.4 25.2h.1v-25.2h8v36.2h-10.4l-15.8-25.8h-.1v25.8h-8zm-38.9 0h8v13.5h15.5v-13.5h8v36.2h-8v-15.6h-15.5v15.6h-8zm-10.1 9.4c-.8-1-1.8-1.7-2.9-2.2s-2.5-.8-4-.8-2.9.3-4.2.9-2.4 1.4-3.3 2.4-1.7 2.3-2.2 3.7-.8 3-.8 4.7.3 3.3.8 4.7 1.3 2.6 2.2 3.7c.9 1 2 1.9 3.3 2.4 1.2.6 2.6.9 4 .9 1.6 0 3.1-.3 4.4-1s2.3-1.6 3.1-2.9l6.7 5c-1.5 2.2-3.5 3.7-5.8 4.8-2.4 1-4.8 1.5-7.3 1.5-2.8 0-5.4-.4-7.8-1.3s-4.5-2.2-6.2-3.8c-1.7-1.7-3.1-3.7-4.1-6-1-2.4-1.5-5-1.5-7.9s.5-5.5 1.5-7.9 2.3-4.4 4.1-6c1.7-1.7 3.8-2.9 6.2-3.8s5-1.3 7.8-1.3c1 0 2.1.1 3.2.3s2.2.5 3.3.9 2.1 1 3.1 1.6c1 .7 1.9 1.5 2.7 2.5zm-54.3-9.4h24.6v7.4h-16.6v6.7h15.7v7.4h-15.7v7.4h17.5v7.3h-25.5zm-22.7 7h-10.3v-7h28.6v7h-10.3v29.2h-8zm-46.8-7h11.4c.8 0 1.7.1 2.7.3s1.9.4 2.9.8 1.9.9 2.7 1.6 1.4 1.6 1.9 2.7.8 2.4.8 4c0 1.7-.3 3.2-.9 4.3s-1.3 2-2.3 2.7c-.9.7-1.9 1.2-3 1.6-1.1.3-2.1.6-3.1.7l10.5 17.4h-3.8l-10.2-17.1h-6.3v17.2h-3.4v-36.2zm3.3 16h7.2c1.8 0 3.2-.2 4.3-.7 1.1-.4 2-1 2.6-1.6s1-1.3 1.3-2.1c.2-.8.3-1.4.3-2s-.1-1.3-.3-2-.6-1.4-1.3-2.1c-.6-.6-1.5-1.2-2.6-1.6s-2.6-.7-4.3-.7h-7.2zm-32.4-16h22.2v3.1h-18.8v12.9h17.6v3h-17.6v14.2h19.6v3h-23zm-8.7 33.9c-2.1 1.2-4.3 2-6.6 2.5s-4.6.7-6.9.7c-2.8 0-5.3-.5-7.6-1.4s-4.3-2.3-5.9-3.9c-1.6-1.7-2.9-3.7-3.8-6s-1.4-4.9-1.4-7.6c0-2.8.5-5.3 1.4-7.6s2.2-4.3 3.8-6 3.6-3 5.9-4 4.8-1.4 7.6-1.4c5.4 0 9.7 1.7 13.1 5l-2.5 2.6c-.5-.6-1.2-1.3-2-1.8-.8-.6-1.7-1-2.6-1.4s-1.9-.7-2.9-.9-2-.3-3-.3c-2.4 0-4.5.4-6.4 1.2s-3.5 1.9-4.8 3.4c-1.3 1.4-2.4 3.1-3.1 5.1-.7 1.9-1.1 4-1.1 6.3s.4 4.4 1.1 6.3 1.7 3.6 3.1 5.1c1.3 1.4 2.9 2.6 4.8 3.4s4 1.2 6.4 1.2c1.9 0 3.8-.2 5.5-.5s3.3-.9 4.7-1.7v-12.5h-8.8v-3.1h12zm-73.6-15.8c0-2.8.5-5.3 1.4-7.6s2.2-4.3 3.8-6 3.6-3 5.9-4 4.8-1.4 7.6-1.4 5.3.5 7.6 1.4c2.3 1 4.3 2.3 5.9 4s2.9 3.7 3.8 6 1.4 4.9 1.4 7.6c0 2.8-.5 5.3-1.4 7.7-.9 2.3-2.2 4.4-3.8 6-1.6 1.7-3.6 3-5.9 3.9s-4.8 1.4-7.6 1.4-5.3-.5-7.6-1.4-4.3-2.3-5.9-3.9c-1.6-1.7-2.9-3.7-3.8-6-1-2.4-1.4-4.9-1.4-7.7m3.4 0c0 2.3.4 4.4 1.1 6.3s1.7 3.6 3.1 5.1c1.3 1.4 2.9 2.6 4.8 3.4s4 1.2 6.4 1.2 4.5-.4 6.4-1.2 3.5-1.9 4.8-3.4c1.3-1.4 2.4-3.1 3.1-5.1.7-1.9 1.1-4 1.1-6.3s-.4-4.4-1.1-6.3-1.7-3.6-3.1-5.1c-1.3-1.4-2.9-2.6-4.8-3.4s-4-1.2-6.4-1.2-4.5.4-6.4 1.2-3.5 1.9-4.8 3.4c-1.3 1.4-2.4 3.1-3.1 5.1-.8 2-1.1 4.1-1.1 6.3m-30.1-18.1h11.4c.8 0 1.7.1 2.7.3s1.9.4 2.9.8 1.9.9 2.7 1.6 1.4 1.6 1.9 2.7.8 2.4.8 4c0 1.7-.3 3.2-.9 4.3s-1.3 2-2.3 2.7c-.9.7-1.9 1.2-3 1.6-1.1.3-2.1.6-3.1.7l10.5 17.4h-3.8l-10.2-17.1h-6.3v17.2h-3.4v-36.2zm3.3 16h7.2c1.8 0 3.2-.2 4.3-.7 1.1-.4 2-1 2.6-1.6s1-1.3 1.3-2.1c.2-.8.3-1.4.3-2s-.1-1.3-.3-2-.6-1.4-1.3-2.1c-.6-.6-1.5-1.2-2.6-1.6s-2.5-.7-4.3-.7h-7.2zm-33.3-16h3.3v16h.4l17.5-16h4.7l-18.4 16.6 19.4 19.6h-4.9l-18.3-18.7h-.4v18.7h-3.3z"/></svg>