<svg enable-background="new 0 0 1000 159" height="159" viewBox="0 0 1000 159" width="1000" xmlns="http://www.w3.org/2000/svg"><path d="m0 159h1000v-159h-1000z" fill="none"/><g clip-rule="evenodd" fill="#099" fill-rule="evenodd"><path d="m3.086 152.537v-30.077c17.119 5.388 32.267 8.082 45.444 8.082 18.193 0 27.291-4.809 27.291-14.42 0-3.583-1.324-6.594-3.978-9.032-2.714-2.586-9.665-6.171-20.835-10.764-20.042-8.241-33.111-15.269-39.19-21.082-7.879-7.673-11.818-17.349-11.818-29.042 0-15.058 5.74-26.535 17.212-34.422 11.345-7.818 26.118-11.723 44.342-11.723 10.041 0 24.574 1.848 43.583 5.549v28.933c-14.144-5.65-27.273-8.469-39.403-8.469-17.081 0-25.621 4.69-25.621 14.091 0 3.514 1.72 6.38 5.165 8.602 2.865 1.798 10.759 5.596 23.665 11.406 18.583 8.253 30.954 15.427 37.118 21.529 7.314 7.238 10.978 16.604 10.978 28.084 0 16.501-7.177 29.088-21.521 37.761-11.621 7.033-26.69 10.535-45.198 10.535-15.63 0-31.378-1.841-47.234-5.541z"/><path d="m141.063 2.704h42.54v152.297h-42.54z"/><path d="m222.616 155.001v-152.297h109.105v27.546h-68.105v34.389h59.282v25.126h-59.282v36.141h69.86v29.095z"/><path d="m361.247 155.001v-152.297h55.155l38.319 97.311 39.28-97.311h52.389v152.297h-40.334v-107.83l-44.664 109.376h-26.369l-43.804-109.376v107.83z"/><path d="m585.411 155.001v-152.297h109.103v27.546h-68.099v34.389h59.28v25.126h-59.28v36.141h69.865v29.095z"/><path d="m724.271 155.001v-152.297h49.304l52.308 101.951v-101.951h29.964v152.297h-47.904l-53.696-103.323v103.323z"/><path d="m886.047 152.537v-30.077c16.974 5.388 32.12 8.082 45.452 8.082 18.195 0 27.282-4.809 27.282-14.42 0-3.583-1.289-6.594-3.854-9.032-2.728-2.586-9.708-6.171-20.945-10.764-19.982-8.173-33.064-15.198-39.199-21.082-7.875-7.605-11.807-17.317-11.807-29.146 0-14.993 5.726-26.432 17.21-34.319 11.328-7.818 26.118-11.723 44.344-11.723 10.247 0 23.525 1.627 39.81 4.896l3.761.653v28.933c-14.146-5.65-27.313-8.469-39.508-8.469-17.016 0-25.503 4.69-25.503 14.091 0 3.514 1.711 6.38 5.147 8.602 2.73 1.729 10.656 5.529 23.778 11.406 18.442 8.253 30.787 15.427 37.005 21.529 7.325 7.238 10.98 16.604 10.98 28.084 0 16.501-7.135 29.088-21.406 37.761-11.689 7.033-26.796 10.535-45.301 10.535-15.647.001-31.402-1.84-47.246-5.54z"/></g></svg>