<svg height="53" viewBox="0 0 592 53" width="592" xmlns="http://www.w3.org/2000/svg"><g fill="#0a0b09" fill-rule="evenodd"><path d="m47.442 28.101h-46.673l23.336 23.336z"/><path d="m67.411 35.924 9.52-9.521-9.52-9.521z"/><path d="m61.338 10.811-10.42-10.421h-22.6l10.42 10.421z"/><path d="m28.48 52.255h19.043l-9.521-9.521z"/><path d="m40.517 40.219 11.3 11.299 11.299-11.299-11.299-11.3z"/><path d="m24.105 1.208-23.336 23.336h46.673z"/><path d="m63.853 14.368h-21.557l21.557 21.556z"/><path d="m133.304 14.566h-15.573v30.436h-7.103v-30.436h-15.628v-6.338h38.304z"/><path d="m160.636 33.043-8.372-18.809-8.371 18.809zm2.501 5.653h-21.745l-2.772 6.306h-7.774l17.07-36.856h8.697l17.124 36.856h-7.774z"/><path d="m218.768 8.228v36.774h-7.049l-23.387-26.83v26.83h-6.94v-36.774h7.05l23.386 26.774v-26.774z"/><path d="m269.314 25.112v15.19c-4.207 3.607-11.037 5.629-20.054 5.629-13.551 0-21.311-5.629-21.311-18.306v-2.076c0-12.622 7.76-18.25 21.147-18.25 8.415 0 14.536 1.912 19.945 7.322l-4.481 5.573c-3.497-4.207-8.524-6.393-15.464-6.393-8.251 0-14.043 3.17-14.043 11.694v2.185c0 8.526 5.792 11.748 15.136 11.748 6.831 0 10.055-1.366 12.021-2.895v-5.848h-17.922v-5.573z"/><path d="m285.436 26.533h15.354c4.427 0 7.322-2.022 7.322-6.448 0-4.372-2.895-5.519-7.322-5.519h-15.354zm13.497 6.175h-13.497v12.294h-6.885v-36.774h22.786c8.962 0 13.879 3.06 13.879 11.857 0 6.338-3.06 10.492-8.688 12.022l9.945 12.895h-8.306z"/><path d="m349.532 32.981-8.414-18.907-8.416 18.907zm2.514 5.683h-21.857l-2.786 6.338h-7.815l17.158-37.048h8.743l17.212 37.048h-7.813z"/><path d="m418.767 8.228v36.774h-6.94v-25.081l-14.862 22.677h-5.301l-14.589-22.568v24.972h-6.94v-36.774h7.486l16.721 25.736 16.939-25.736z"/><path d="m433.916 10.9v14.1h25.447v2.534h-25.447v17.461h-2.975v-36.849h33.654v2.754z"/><path d="m502.713 42.296v2.699h-29.689v-36.849h2.975v34.15z"/><path d="m545.29 42.296v2.699h-34.26v-36.849h34.15v2.699h-31.175v13.77h25.942v2.423h-25.942v15.258z"/><path d="m587.483 44.995-17.296-16.855-17.13 16.855h-3.58l18.838-18.507-18.727-18.342h3.745l17.131 16.854 17.019-16.854h3.579l-18.727 18.452 18.948 18.397z"/></g></svg>
