<?xml version="1.0" encoding="UTF-8" standalone="no"?>
<svg
   xmlns:dc="http://purl.org/dc/elements/1.1/"
   xmlns:cc="http://creativecommons.org/ns#"
   xmlns:rdf="http://www.w3.org/1999/02/22-rdf-syntax-ns#"
   xmlns:svg="http://www.w3.org/2000/svg"
   xmlns="http://www.w3.org/2000/svg"
   style="fill:#f22f46"
   height="30"
   width="99.699997"
   id="svg4"
   version="1.1"
   viewBox="0 0 99.699997 30">
  <metadata
     id="metadata10">
    <rdf:RDF>
      <cc:Work
         rdf:about="">
        <dc:format>image/svg+xml</dc:format>
        <dc:type
           rdf:resource="http://purl.org/dc/dcmitype/StillImage" />
      </cc:Work>
    </rdf:RDF>
  </metadata>
  <defs
     id="defs8" />
  <path
     id="path2"
     d="m 14.4,11.3 c 0,1.7 -1.4,3.1 -3.1,3.1 -1.7,0 -3.1,-1.4 -3.1,-3.1 0,-1.7 1.4,-3.1 3.1,-3.1 1.7,0 3.1,1.4 3.1,3.1 z m -3.1,4.3 c -1.7,0 -3.1,1.4 -3.1,3.1 0,1.7 1.4,3.1 3.1,3.1 1.7,0 3.1,-1.4 3.1,-3.1 0,-1.7 -1.4,-3.1 -3.1,-3.1 z M 30,15 C 30,23.3 23.3,30 15,30 6.7,30 0,23.3 0,15 0,6.7 6.7,0 15,0 23.3,0 30,6.7 30,15 Z m -4,0 C 26,8.9 21.1,4 15,4 8.9,4 4,8.9 4,15 c 0,6.1 4.9,11 11,11 6.1,0 11,-4.9 11,-11 z m -7.3,0.6 c -1.7,0 -3.1,1.4 -3.1,3.1 0,1.7 1.4,3.1 3.1,3.1 1.7,0 3.1,-1.4 3.1,-3.1 0,-1.7 -1.4,-3.1 -3.1,-3.1 z m 0,-7.4 c -1.7,0 -3.1,1.4 -3.1,3.1 0,1.7 1.4,3.1 3.1,3.1 1.7,0 3.1,-1.4 3.1,-3.1 0,-1.7 -1.4,-3.1 -3.1,-3.1 z M 70.3,5.9 c 0.1,0 0.2,0.1 0.3,0.2 v 3.2 c 0,0.2 -0.2,0.3 -0.3,0.3 H 65 C 64.8,9.6 64.7,9.4 64.7,9.3 V 6.2 C 64.7,6 64.9,5.9 65,5.9 Z m -0.1,4.5 H 60 c -0.1,0 -0.3,0.1 -0.3,0.3 l -1.3,5 -0.1,0.3 -1.6,-5.3 c 0,-0.1 -0.2,-0.3 -0.3,-0.3 h -4 c -0.1,0 -0.3,0.1 -0.3,0.3 l -1.5,5 -0.1,0.3 -0.1,-0.3 -0.6,-2.5 -0.6,-2.5 c 0,-0.1 -0.2,-0.3 -0.3,-0.3 h -8 V 6.1 C 40.9,6 40.7,5.8 40.5,5.9 l -5,1.6 c -0.2,0 -0.3,0.1 -0.3,0.3 v 2.7 h -1.3 c -0.1,0 -0.3,0.1 -0.3,0.3 v 3.8 c 0,0.1 0.1,0.3 0.3,0.3 h 1.3 v 4.7 c 0,3.3 1.8,4.8 5.1,4.8 1.4,0 2.7,-0.3 3.6,-0.8 v -4 c 0,-0.2 -0.2,-0.3 -0.3,-0.2 -0.5,0.2 -1,0.3 -1.4,0.3 -0.9,0 -1.4,-0.4 -1.4,-1.4 v -3.4 h 2.9 c 0.1,0 0.3,-0.1 0.3,-0.3 V 11.4 L 47.8,24 c 0,0.1 0.2,0.3 0.3,0.3 h 4.2 c 0.1,0 0.3,-0.1 0.3,-0.3 l 1.8,-5.6 0.9,2.9 0.8,2.7 c 0,0.1 0.2,0.3 0.3,0.3 h 4.2 c 0.1,0 0.3,-0.1 0.3,-0.3 L 64.7,11.4 V 24 c 0,0.1 0.1,0.3 0.3,0.3 h 5.1 c 0.1,0 0.3,-0.1 0.3,-0.3 V 10.7 c 0,-0.1 -0.1,-0.3 -0.2,-0.3 z m 6.7,-4.5 h -5.1 c -0.1,0 -0.3,0.1 -0.3,0.3 v 17.7 c 0,0.1 0.1,0.3 0.3,0.3 h 5.1 c 0.1,0 0.3,-0.1 0.3,-0.3 V 6.1 C 77.2,6 77.1,5.9 76.9,5.9 Z m 6.8,0 h -5.3 c -0.1,0 -0.3,0.1 -0.3,0.3 v 3.1 c 0,0.1 0.1,0.3 0.3,0.3 h 5.3 C 83.8,9.6 84,9.5 84,9.3 V 6.1 C 84,6 83.9,5.9 83.7,5.9 Z m -0.1,4.5 h -5.1 c -0.1,0 -0.3,0.1 -0.3,0.3 v 13.1 c 0,0.1 0.1,0.3 0.3,0.3 h 5.1 c 0.1,0 0.3,-0.1 0.3,-0.3 V 10.7 c 0,-0.1 -0.1,-0.3 -0.3,-0.3 z m 16.1,6.8 c 0,3.8 -3.2,7.1 -7.7,7.1 -4.4,0 -7.6,-3.3 -7.6,-7.1 0,-3.8 3.2,-7.1 7.7,-7.1 4.4,0 7.6,3.3 7.6,7.1 z m -5.4,0.1 c 0,-1.4 -1,-2.5 -2.2,-2.4 -1.3,0 -2.2,1.1 -2.2,2.4 0,1.3 1,2.4 2.2,2.4 1.3,0 2.2,-1.1 2.2,-2.4 z" />
</svg>
