<?xml version="1.0" encoding="UTF-8" standalone="no"?>
<!DOCTYPE svg PUBLIC "-//W3C//DTD SVG 1.1//EN"
"http://www.w3.org/Graphics/SVG/1.1/DTD/svg11.dtd">


<!-- Page 1 -->
<svg x="0" y="0" width="1099" height="399" viewBox="0 0 1099 399" version="1.1" xmlns="http://www.w3.org/2000/svg" xmlns:xlink="http://www.w3.org/1999/xlink"
style="display: block;margin-left: auto;margin-right: auto;">
<defs>
<clipPath id="c0_1"><path d="M0,399V0H1099.7V399Z" /></clipPath>

<style type="text/css"><![CDATA[

.g0_1{
fill: #000222;
}
.g1_1{
fill: #DD1100;
}
.g2_1{
fill: #FFFFFF;
}
.g3_1{
}

]]></style>

</defs>
<path d="M0,0
L0,399
L1099,399
L1099,0 Z " 
fill="#FFFFFF" stroke="none" />
<path fill-rule="evenodd" d="M226.5,154.8c-7.4,-7.3,-22.1,-16.7,-22.1,-16.7c0,0,-2.9,-17.1,-4.9,-23.5c13.3,-12.8,15.2,-14.7,28,-27c1,24.5,.5,37.3,-1,67.2Z" class="g0_1" />
<path fill-rule="evenodd" d="M236.8,206.4c-8.8,2.4,-9.8,2.9,-18.6,5.4c-9.4,-5.4,-17.7,-8.4,-25.5,-7.4c.9,-4.9,2.4,-8.4,3.9,-12.8c16.6,-2.4,28.9,6.4,40.2,14.8Z" class="g0_1" />
<path fill-rule="evenodd" d="M372.2,199.5c0,45.8,-18.2,89.7,-50.5,122.1c-9.3,9.3,-19.5,17.4,-30.5,24.3h-.1L231.9,272.1l49.1,5.4c0,0,23.5,2.4,28.9,0c4.9,-1.9,31.4,-39.2,31.4,-39.2c0,0,-76.1,-48.1,-102.1,-74.6C242.2,119,235.8,59.6,235.8,60.1C216.7,79.2,214.2,82.2,195.1,99.9C186.7,72.9,182.8,63.6,174.5,36.6C149.4,57.2,130.3,92,116.6,132.8c-3,3.3,-5.9,6.8,-8.8,10.5c-1.8,2.5,-3.7,5,-5.5,7.6c-3.7,5.2,-7.2,10.8,-10.6,16.5c-2.4,4.1,-4.8,8.3,-7,12.6c-16,29.9,-29.1,64.3,-40.4,95.2c-.1,-.1,-.2,-.3,-.2,-.4C32.8,251.5,26.8,225.8,26.8,199.5C26.8,153.7,45,109.7,77.4,77.3C109.8,44.9,153.7,26.8,199.5,26.8c45.8,0,89.8,18.1,122.2,50.5c32.3,32.4,50.5,76.4,50.5,122.2Z" class="g0_1" />
<path fill-rule="evenodd" d="M226.5,154.8c-7.4,-7.3,-22.1,-16.7,-22.1,-16.7c0,0,-2.9,-17.1,-4.9,-23.5c13.3,-12.8,15.2,-14.7,28,-27c1,24.5,.5,37.3,-1,67.2Z" class="g1_1" />
<path fill-rule="evenodd" d="M236.8,206.4c-8.8,2.4,-9.8,2.9,-18.6,5.4c-9.4,-5.4,-17.7,-8.4,-25.5,-7.4c.9,-4.9,2.4,-8.4,3.9,-12.8c16.6,-2.4,28.9,6.4,40.2,14.8Z" class="g1_1" />
<path fill-rule="evenodd" d="M372.2,199.5c0,45.8,-18.2,89.7,-50.5,122.1c-9.3,9.3,-19.5,17.4,-30.5,24.3h-.1L231.9,272.1l49.1,5.4c0,0,23.5,2.4,28.9,0c4.9,-1.9,31.4,-39.2,31.4,-39.2c0,0,-76.1,-48.1,-102.1,-74.6C242.2,119,235.8,59.6,235.8,60.1C216.7,79.2,214.2,82.2,195.1,99.9C186.7,72.9,182.8,63.6,174.5,36.6C149.4,57.2,130.3,92,116.6,132.8c-3,3.3,-5.9,6.8,-8.8,10.5c-1.8,2.5,-3.7,5,-5.5,7.6c-3.7,5.2,-7.2,10.8,-10.6,16.5c-2.4,4.1,-4.8,8.3,-7,12.6c-16,29.9,-29.1,64.3,-40.4,95.2c-.1,-.1,-.2,-.3,-.2,-.4C32.8,251.5,26.8,225.8,26.8,199.5C26.8,153.7,45,109.7,77.4,77.3C109.8,44.9,153.7,26.8,199.5,26.8c45.8,0,89.8,18.1,122.2,50.5c32.3,32.4,50.5,76.4,50.5,122.2Z" class="g1_1" />
<path fill-rule="evenodd" d="M226.5,154.8c-7.4,-7.3,-22.1,-16.7,-22.1,-16.7c0,0,-2.9,-17.1,-4.9,-23.5c13.3,-12.8,15.2,-14.7,28,-27c1,24.5,.5,37.3,-1,67.2Z" class="g2_1" />
<path fill-rule="evenodd" d="M236.8,206.4c-8.8,2.4,-9.8,2.9,-18.6,5.4c-9.4,-5.4,-17.7,-8.4,-25.5,-7.4c.9,-4.9,2.4,-8.4,3.9,-12.8c16.6,-2.4,28.9,6.4,40.2,14.8Z" class="g2_1" />
<path fill-rule="evenodd" d="M236.8,206.4c-8.8,2.4,-9.8,2.9,-18.6,5.4c-9.4,-5.4,-17.7,-8.4,-25.5,-7.4c.9,-4.9,2.4,-8.4,3.9,-12.8c16.6,-2.4,28.9,6.4,40.2,14.8Z" class="g3_1" />
<path fill-rule="evenodd" d="M231.9,272.1l59.2,73.8q.1,0,.1,0ZM44.1,274.8c0,.1,.1,.3,.2,.4C55.6,244.3,68.7,209.9,84.7,180C68.6,209.8,55.4,244,44.1,274.8Z" class="g0_1" />
<g clip-path="url(#c0_1)">
<path fill-rule="evenodd" d="M321.7,321.6c-9.3,9.3,-19.5,17.4,-30.5,24.3h-.1L231.9,272.1l49.1,5.4c0,0,23.5,2.4,28.9,0c4.9,-1.9,31.4,-39.2,31.4,-39.2c0,0,-76.1,-48.1,-102.1,-74.6C242.2,119,235.8,59.6,235.8,60.1C216.7,79.2,214.2,82.2,195.1,99.9C186.8,72.9,182.8,63.6,174.5,36.6C149.4,57.2,130.3,92,116.6,132.8c-3,3.3,-5.9,6.8,-8.8,10.5c-1.8,2.5,-3.7,5,-5.5,7.6c-3.7,5.2,-7.2,10.8,-10.6,16.5c-2.4,4.1,-4.8,8.3,-7,12.6c-1,1.8,-2,3.7,-3,5.6C67.1,214.2,54.9,246.2,44.3,275.2c-.1,-.1,-.2,-.3,-.2,-.4C32.8,251.5,26.8,225.8,26.8,199.5C26.8,153.7,45,109.7,77.4,77.3C109.8,44.9,153.7,26.8,199.5,26.8c45.8,0,89.8,18.1,122.2,50.5c32.3,32.4,50.5,76.4,50.5,122.2c0,45.8,-18.2,89.7,-50.5,122.1M199.5,114.6c13.3,-12.8,15.2,-14.7,28,-27c1,24.5,.5,37.3,-1,67.2c-7.4,-7.3,-22.1,-16.7,-22.1,-16.7c0,0,-2.9,-17.1,-4.9,-23.5m61.3,247.3C155,400.2,78.5,329.7,62.2,305.1c.1,-.2,.1,-.4,.1,-.6C77,242.3,95.2,168,124.4,146c15.3,-26.5,19.7,-65.8,47.1,-86.4c6.9,20.6,17.7,63.3,25.1,83.9c32.4,32.4,81.4,72.7,114.3,89.4c3.4,1.9,7.8,15.7,7.8,15.7l-13.2,16.6L164.2,251c-3.2,-.3,-6.3,-.4,-9.5,-.4c-9.1,0,-18.4,1.1,-29.3,2.8C132.3,236.3,147,222.5,147,222.5c0,0,-13.7,-8.3,-24.1,-9.7c3,-6.9,10.9,-15.8,12.8,-18.2c-3.9,1.4,-32.4,14.2,-35.3,25c13.7,3.4,23.5,7.8,23.5,7.8c0,0,-15.2,15.3,-18.1,41.8c0,0,45.1,-6.9,79,-2.5c1,.5,1.5,.5,2,.5l17.6,.5l56.1,93.4l.5,.7q-.1,.1,-.2,.1M335.2,63.8C299.2,27.9,250.4,7.6,199.5,7.6C148.6,7.6,99.8,27.9,63.8,63.8C27.9,99.8,7.6,148.6,7.6,199.5c0,50.9,20.3,99.7,56.2,135.6c36,36.1,84.8,56.3,135.7,56.3c50.9,0,99.7,-20.2,135.7,-56.3c36,-35.9,56.2,-84.7,56.2,-135.6c0,-50.9,-20.2,-99.7,-56.2,-135.7Z" class="g3_1" />
<path fill-rule="evenodd" d="M196.6,191.6c16.6,-2.4,28.9,6.4,40.2,14.8c-8.8,2.4,-9.8,2.9,-18.6,5.4c-9.4,-5.4,-17.7,-8.4,-25.5,-7.4c.9,-4.9,2.4,-8.4,3.9,-12.8m-71.2,61.8c10.9,-1.7,20.2,-2.8,29.3,-2.8c3.2,0,6.3,.1,9.5,.4l141.3,14.2l13.2,-16.6c0,0,-4.4,-13.8,-7.8,-15.7C278,216.2,229,175.9,196.6,143.5C189.2,122.9,178.4,80.2,171.5,59.6C144.1,80.2,139.7,119.5,124.4,146C95.2,168,77,242.3,62.3,304.5c0,.2,0,.4,-.1,.6c16.3,24.6,92.8,95.1,198.6,56.8q.1,0,.2,-.1l-.5,-.7L204.4,267.7l-17.7,-.5c-.4,0,-.9,0,-1.9,-.5c-33.9,-4.4,-79,2.5,-79,2.5c2.9,-26.5,18.1,-41.8,18.1,-41.8c0,0,-9.8,-4.4,-23.5,-7.8c2.9,-10.8,31.4,-23.6,35.3,-25c-1.9,2.4,-9.8,11.3,-12.8,18.2c10.4,1.4,24.1,9.7,24.1,9.7c0,0,-14.7,13.8,-21.6,30.9Z" class="g2_1" />
</g>
<path d="M484.4,40.3h22.3l20.2,94.1L542.5,40.3h19L539,161.1H517.2L495.5,61.6l-21.6,99.5H452.1L429.6,40.3h19l15.6,94.1Z" class="g3_1" />
<path d="M566.1,119.9c0,-24.5,7,-41.7,35.3,-41.7c28.4,0,35.4,17.2,35.4,41.7c0,24.5,-7,41.7,-35.4,41.7c-28.3,0,-35.3,-17.2,-35.3,-41.7m52.7,0c0,-17.1,-2.3,-26.8,-17.4,-26.8c-15.1,0,-17.3,9.7,-17.3,26.8c0,17,2.2,26.7,17.3,26.7c15.1,0,17.4,-9.7,17.4,-26.7Z" class="g3_1" />
<path d="M650.5,140.1V40.3h17.8v99.6c0,4.5,1.6,6.1,6.7,6.1v14.5c0,0,-1.6,.3,-3.5,.3c-14.5,0,-21,-7,-21,-20.7Z" class="g3_1" />
<path d="M741.9,55.4c-2.9,-1,-6.3,-1.6,-11.8,-1.6c-8,0,-14.4,3,-14.4,12.1V80.1h22.5V95.2H715.7v64.5H697.9V95.2H683.4v-11l14.5,-4.1V64.3c0,-17,9.6,-25.9,30.9,-25.9c5.2,0,10,.8,13.1,1.9Z" class="g3_1" />
<path d="M794.4,94.4c-1.9,-.6,-5.1,-.9,-8.8,-.9c-9.4,0,-16.4,2.2,-20.3,4.7v61.5H747.4V80.1h10.5l2.9,6.3c5.9,-4.7,14.8,-8.2,25.2,-8.2c3.3,0,6.2,.4,8.4,.9Z" class="g3_1" />
<path d="M831,93.5c-10.3,0,-18.8,2.3,-24.8,4.7V82.8c6.2,-2.7,16.7,-4.6,26.1,-4.6c26.1,0,32.2,11.4,32.2,28.3v53.2H853.9l-2.8,-6.4c-6.4,5.3,-15.3,8.3,-24.1,8.3c-20.5,0,-27.4,-12.7,-27.4,-25.5c0,-17.2,11.2,-24.5,29.2,-25.9l17.8,-1.5v-3.9c0,-8.2,-3.8,-11.3,-15.6,-11.3m-1.1,29.4c-8,1,-12.6,4,-12.6,12.3c0,6,2.6,11.8,12.3,11.8c7.1,0,12.1,-2.1,17,-5.3V121Z" class="g3_1" />
<path d="M973.2,103.5c0,-7.5,-4.3,-10.2,-11.3,-10.2c-7.8,0,-13.1,2.4,-17.2,4.9c.3,2.9,.5,5.6,.5,8.8v52.7H927.3V103.5C927.3,96,923.2,93.3,916,93.3c-7.3,0,-12.5,2.2,-16.7,4.6v61.8H881.5V80.1H892l2.9,6.3c6.6,-5.2,16.2,-8.2,24,-8.2c10.7,0,17,3,20.4,7.9C946.4,81,956,78.2,964.8,78.2c18.7,0,26.2,10.2,26.2,25.3v56.2H973.2Z" class="g3_1" />
<path d="M447.4,302.5h51.9v16.4H429.6V199.5h17.8Z" class="g3_1" />
<path d="M534.2,252.7c-10.4,0,-18.8,2.4,-24.9,4.8V242c6.2,-2.7,16.7,-4.6,26.1,-4.6c26.2,0,32.2,11.5,32.2,28.3v53.2H557.1l-2.9,-6.3c-6.3,5.2,-15.3,8.2,-24,8.2c-20.6,0,-27.4,-12.7,-27.4,-25.4c0,-17.2,11.1,-24.6,29.1,-26L549.8,268v-4c0,-8.1,-3.8,-11.3,-15.6,-11.3m-1.1,29.4c-8,1,-12.6,4,-12.6,12.3c0,6.1,2.5,11.8,12.2,11.8c7.2,0,12.1,-2.1,17.1,-5.3V280.2Z" class="g3_1" />
<path d="M633.4,318.9V264.3c0,-8.1,-4.2,-11.8,-12.6,-11.8c-8.3,0,-14,2.3,-18.3,4.6v61.8H584.6V239.3h10.5l2.9,6.4c8.1,-5.6,17.2,-8.3,25.8,-8.3c20.2,0,27.4,10,27.4,25.3v56.2Z" class="g3_1" />
<path d="M698.3,297.9c-3.3,0,-6.5,-.1,-9.2,-.6c-1.3,1.2,-2.2,3,-2.2,4.6c0,2.7,1.4,4.1,4.7,4.6l28.9,3.5c15.7,1.9,21.3,9.1,21.3,22.3c0,20.5,-21.7,28.3,-44.8,28.3c-21.3,0,-36.7,-6.8,-36.7,-23.2c0,-10.8,8.1,-17.2,16.5,-19.7v-.2c-4,-2.2,-6.2,-6.7,-6.2,-11c0,-5.9,3.5,-10,7.2,-12.9C668.7,288.5,665,279.3,665,267.7c0,-18.2,9,-30.3,33.3,-30.3c5.8,0,10.5,.6,14.7,1.9h27.5v11.3l-11.3,3.2c1.6,4.1,2.4,8.8,2.4,13.9c0,18.1,-8.9,30.2,-33.3,30.2m-5.6,23.4c-8.1,1.4,-15.4,5.1,-15.4,12.8c0,8.9,6.4,12.4,21,12.4c14,0,26.3,-4.2,26.3,-13.7c0,-5.4,-2.7,-7.8,-9.2,-8.6Zm5.6,-37.6c13.4,0,16.4,-7,16.4,-16c0,-9.1,-3,-16.1,-16.4,-16.1c-13.4,0,-16.4,7,-16.4,16.1c0,9,3,16,16.4,16Z" class="g3_1" />
<path d="M768.7,239.3v54.6c0,8.2,4.1,11.8,12.6,11.8c8.3,0,14,-2.2,18.3,-4.6V239.3h17.8v79.6H806.9L804,312.6c-8.1,5.5,-17.2,8.2,-25.8,8.2c-20.2,0,-27.3,-10,-27.3,-25.3V239.3Z" class="g3_1" />
<path d="M860.2,252.7c-10.3,0,-18.7,2.4,-24.8,4.8V242c6.2,-2.7,16.7,-4.6,26.1,-4.6c26.1,0,32.2,11.5,32.2,28.3v53.2H883.2l-2.9,-6.3c-6.4,5.2,-15.3,8.2,-24,8.2c-20.6,0,-27.4,-12.7,-27.4,-25.4c0,-17.2,11.1,-24.6,29.1,-26L875.8,268v-4c0,-8.1,-3.8,-11.3,-15.6,-11.3m-1.1,29.4c-7.9,1,-12.5,4,-12.5,12.3c0,6.1,2.5,11.8,12.2,11.8c7.2,0,12.1,-2.1,17,-5.3V280.2Z" class="g3_1" />
<path d="M941,297.9c-3.4,0,-6.6,-.1,-9.3,-.6c-1.2,1.2,-2.2,3,-2.2,4.6c0,2.7,1.4,4.1,4.8,4.6l28.8,3.5c15.8,1.9,21.3,9.1,21.3,22.3c0,20.5,-21.6,28.3,-44.7,28.3c-21.3,0,-36.8,-6.8,-36.8,-23.2c0,-10.8,8.1,-17.2,16.6,-19.7v-.2c-4,-2.2,-6.2,-6.7,-6.2,-11c0,-5.9,3.5,-10,7.1,-12.9c-9,-5.1,-12.7,-14.3,-12.7,-25.9c0,-18.2,8.9,-30.3,33.3,-30.3c5.7,0,10.5,.6,14.6,1.9h27.6v11.3l-11.3,3.2c1.6,4.1,2.3,8.8,2.3,13.9c0,18.1,-8.9,30.2,-33.2,30.2m-5.6,23.4c-8.1,1.4,-15.4,5.1,-15.4,12.8c0,8.9,6.3,12.4,21,12.4c14,0,26.2,-4.2,26.2,-13.7c0,-5.4,-2.7,-7.8,-9.2,-8.6ZM941,283.7c13.3,0,16.4,-7,16.4,-16c0,-9.1,-3.1,-16.1,-16.4,-16.1c-13.4,0,-16.4,7,-16.4,16.1c0,9,3,16,16.4,16Z" class="g3_1" />
<path d="M1027.3,237.4c28,0,32.4,18.5,32.4,40.4c0,2.8,-.1,5.3,-.3,7.9h-49.5c.3,11.9,4.6,19.7,20.9,19.7c10,0,18.3,-1.8,25.3,-4.8v15.3c-9.1,3.8,-19.4,4.9,-28,4.9c-26.6,0,-36.2,-15.9,-36.2,-41.7c0,-25.6,9.4,-41.7,35.4,-41.7m-17.4,35.8h31.9c0,-10.8,-.7,-20.3,-14.5,-20.3c-13.1,0,-16.8,8.4,-17.4,20.3Z" class="g3_1" />
<path d="M1073.1,222h4.9l4.6,11.8l4.5,-11.8h5v17.5h-3.2V226.1h-.1l-4.9,13.4h-2.6l-5,-13.4v13.4h-3.2Zm-12.8,2.9h-5.4V222h14v2.9h-5.4v14.6h-3.2Z" class="g3_1" />

</svg>
